<?xml version="1.0" encoding="UTF-8"?><svg id="Calque_2" xmlns="http://www.w3.org/2000/svg" viewBox="0 0 408.77 408.75"><g id="Calque_1-2"><path d="m0,12.72c.42-.95.84-1.91,1.25-2.86C5.52-.03,17.43-3.11,25.88,3.53c1.35,1.06,2.59,2.29,3.81,3.52,124.01,124,248.01,248.01,372.05,371.98,5.36,5.36,8.67,11.1,6.16,18.87-1.89,5.85-6.49,8.79-11.87,10.85h-6.39c-3.95-2.8-8.37-5.13-11.77-8.49-22.91-22.61-45.6-45.44-68.34-68.22-1.03-1.03-1.76-2.35-2.61-3.5-2.94,1.67-5.12,2.91-7.3,4.14-23.27,13.09-47.9,22.09-74.58,25.24-35.08,4.14-68.28-2.43-99.97-17.3-30.58-14.34-57.17-34.44-80.14-59-12.13-12.96-22.86-27.28-33.7-41.38-6.76-8.79-9.51-19.44-11.23-30.3,0-3.73,0-7.45,0-11.18.22-.89.53-1.77.64-2.67,1.28-10.06,4.84-19.3,10.5-27.65,16.04-23.68,35.05-44.7,56.91-63.15,2.6-2.2,5.19-4.41,8.19-6.96-1.38-1.21-2.55-2.1-3.58-3.13C51.23,73.78,29.74,52.43,8.47,30.86c-3.35-3.4-5.67-7.81-8.47-11.76,0-2.13,0-4.26,0-6.39Zm98.34,109.06c-23.62,18.27-44.26,39.79-60.92,64.94-7.92,11.96-7.49,24.48.63,36.26,24.93,36.18,56.04,65.67,95.3,85.9,34.31,17.68,70.3,23.51,108.15,13.55,14.44-3.8,28.12-9.45,40.57-16.54-8.78-8.73-17.51-17.41-26.3-26.15-38.6,25.85-85.98,17.57-114.81-10.14-24.34-23.39-41.59-72.09-11.81-117.01-10.27-10.27-20.5-20.5-30.8-30.81Zm54.68,53.75c-13.38,24.25-8.59,53.6,11.24,72.07,20.61,19.18,50.13,19.58,68.83,8-6.62-6.62-13.16-13.22-19.82-19.7-.69-.67-2.14-.96-3.16-.83-21.6,2.65-38.33-14.02-35.63-35.5.13-1.04-.09-2.51-.75-3.19-6.76-6.95-13.64-13.77-20.71-20.85Z"/><path d="m207.21,49.53c39.26.7,74.46,13.84,106.77,35.3,32.97,21.89,60.35,49.5,82.75,82.14,15.64,22.8,16.35,51.44.29,73.98-9.39,13.18-19.97,25.54-30.44,37.92-6.41,7.59-16.25,8.03-23.05,1.89-6.7-6.05-6.8-15.7-.57-23.23,9.15-11.06,18.45-22.02,27.01-33.52,9.43-12.68,9.2-26.25.22-39.28-22.44-32.54-50.17-59.56-84.34-79.62-26.89-15.79-55.81-25.03-87.31-23.39-10.8.56-21.55,2.96-32.22,5.06-11.65,2.29-21.34-4.75-21.01-15.85.2-6.89,4.81-12.94,11.84-14.85,16.38-4.45,33.05-6.83,50.04-6.55Z"/><path d="m293.68,187.47c.11,8.22-5.55,14.92-13.26,16.31-7.68,1.39-14.86-2.94-17.76-10.27-2.96-7.49-5.51-15.3-9.64-22.13-6.89-11.41-17.41-18.8-30.1-22.99-2.4-.79-4.84-1.45-7.2-2.33-7.71-2.87-11.9-10.76-9.93-18.58,2.05-8.16,9.46-13.5,17.69-11.89,20.47,4.01,37.18,14.57,50.62,30.37,9.1,10.71,15.25,22.98,18.64,36.62.45,1.8.69,3.65.92,4.88Z"/></g></svg>