<?xml version="1.0" encoding="UTF-8"?>
<svg id="Calque_2" data-name="Calque 2" xmlns="http://www.w3.org/2000/svg" viewBox="0 0 368.04 282.51">
  <defs>
    <style>
      .cls-1 {
        stroke-width: .65px;
      }

      .cls-1, .cls-2 {
        fill: none;
        stroke: #1d1d1b;
        stroke-linecap: round;
        stroke-linejoin: round;
      }

      .cls-3 {
        font-family: Nantes-Regular, Nantes;
        font-size: 14.75px;
      }

      .cls-3, .cls-4 {
        fill: #a82b39;
      }

      .cls-5 {
        fill: #a92b3a;
      }

      .cls-6 {
        fill: #f39a89;
      }

      .cls-2 {
        stroke-width: .61px;
      }

      .cls-7 {
        fill: #c6c6c6;
      }

      .cls-8 {
        fill: #e3e3e3;
      }
    </style>
  </defs>
  <g id="Calque_1-2" data-name="Calque 1">
    <g>
      <text class="cls-3" transform="translate(247.41 261.86)"><tspan x="0" y="0"> </tspan></text>
      <g>
        <path class="cls-7" d="m157.9,112.97c15.26,0,27.63-6.91,27.63-15.43s-12.37-15.43-27.63-15.43-27.63,6.91-27.63,15.43,12.37,15.43,27.63,15.43"/>
        <ellipse class="cls-2" cx="157.9" cy="97.54" rx="27.63" ry="15.43"/>
        <path class="cls-8" d="m151.94,85.1l-4.09,2.43c-.18.25-.52.55-.76.74-.22.18-.59.41-.75.62-.44.56-.92,1.18-1.4,1.68l-4.89-1.29c-.63.89-1.27,1.81-1.96,2.4-1.69,1.44-2.72,3.16-2.36,5.63.03.19.03.37.01.56l4.89.52c.11.64-.19,1.65.23,2.17.56.68,1.46.33,2.01.67,0,.03,0,.03.03.04,0,.21.03,1.28.12,1.41,1.33,0,1.43-1.43,2.85-.27.84.69,3.44,1.91,4.48,1.91l3.4,1.06-.35,1.08c-.11.37-.48.86-.78,1.1-.23.18-.65.33-.8.58-.52.91.78,1.2.78,1.81,0,.39-.47.86-.64,1.21-.26.56.23.94,0,1.59,0,.49.41,1.22.43,1.87.03.95-.2,1.77-.62,2.61-.44.87-1.09,3.74-2.07,3.98,0,.03.01.04.01.08.45.15,2.12,1.89,2.24,2.36-.41.71-.89,1.37-1.04,2.25-.13.78-1.23,1.01-1.92,1.01h-.01s-.16-1.81-.16-1.81c-.08-.86-.29-.58-.87-.16-.6.44-2.7,1.84-3.4,1.6,0-.78-1.16-1.71-.29-2.15.57-.29,1.9-1.07,1.5-1.78-.21-.38-.68-1.09-.98-1.41-.74-.75-.77-1.16-1.73-1.66-.79,0-1.61-.24-2.4-.11-.74.12-1.29.36-1.69-.43-.49-.98-2.1-1.15-2.22-2.56-.04-.03-.03-.05-.06-.09-.23,0-.75.52-1.04.62-.44.15-.52.24-1.01.13.1-.33.37-.84.62-1.07.27-.24.69-.44.9-.77.29-.47.14-1.46-.29-1.81-.36-.29-.74-.23-1.17-.31-.57,0-1.86.23-1.53-.67.3-.83.01-.48-.43-1.14-.08-.11-.42-.68-.52-.69-.01-.11-.18-.2-.2-.31-.67-.17-1.54.13-2.34-.11-1.13-.33-1.04-1.08-1.23-2.09-.61-3.18-2.51-1.34-4.63-1.79-.29-.06-.12-.92-.15-1.18,0-.74-.3-1.38-.32-2.03-.02-.67.27-.9.46-1.5.36-1.09-1.39-1.65-.81-2.98.27-.61,1.43-.64,1.43-1.07,0-.64-1.67-2.06-.51-2.53.76-.31.23-.38.22-.98l-.82-2.08c.64-.68.88-1.61,1.25-2.55.5-1.29.98-2.53,1.63-3.78.48-.9,2.23-1.52,3.18-1.7.91-.18,1.85-.69,2.82-1.4,1.2-.9,2.54-2.17,3.29-3.01,1.45-1.64,3.31-2.97,5.12-4.18,1.38-.92,2.81-1.92,4.48-2.49.53-.18,1.14-.29,1.76-.33,2.21-.15,4.79.52,6.42,1.62,1.1.74,2.02,1.09,1.52,2.77-.49,1.62-1.61,2.22-2.36,3.6-.15.27-.67.59-1.29.9l.8,3.67Z"/>
        <path class="cls-1" d="m151.94,85.1l-4.09,2.43c-.18.25-.52.55-.76.74-.22.18-.59.41-.75.62-.44.56-.92,1.18-1.4,1.68l-4.89-1.29c-.63.89-1.27,1.81-1.96,2.4-1.69,1.44-2.72,3.16-2.36,5.63.03.19.03.37.01.56l4.89.52c.11.64-.19,1.65.23,2.17.56.68,1.46.33,2.01.67,0,.03,0,.03.03.04,0,.21.03,1.28.12,1.41,1.33,0,1.43-1.43,2.85-.27.84.69,3.44,1.91,4.48,1.91l3.4,1.06-.35,1.08c-.11.37-.48.86-.78,1.1-.23.18-.65.33-.8.58-.52.91.78,1.2.78,1.81,0,.39-.47.86-.64,1.21-.26.56.23.94,0,1.59,0,.49.41,1.22.43,1.87.03.95-.2,1.77-.62,2.61-.44.87-1.09,3.74-2.07,3.98,0,.03.01.04.01.08.45.15,2.12,1.89,2.24,2.36-.41.71-.89,1.37-1.04,2.25-.13.78-1.23,1.01-1.92,1.01h-.01s0-1.64,0-1.64c-.08-.86-.47.01-1,.38-.61.43-2.72,1.5-3.41,1.26,0-.78-1.18-2.08-.31-2.52.57-.29,1.9-1.07,1.5-1.78-.21-.38-.68-1.09-.98-1.41-.74-.75-.77-1.16-1.73-1.66-.79,0-1.61-.24-2.4-.11-.74.12-1.29.36-1.69-.43-.49-.98-2.1-1.15-2.22-2.56-.04-.03-.03-.05-.06-.09-.23,0-.75.52-1.04.62-.44.15-.52.24-1.01.13.1-.33.37-.84.62-1.07.27-.24.69-.44.9-.77.29-.47.14-1.46-.29-1.81-.36-.29-.74-.23-1.17-.31-.57,0-1.86.23-1.53-.67.3-.83.01-.48-.43-1.14-.08-.11-.42-.68-.52-.69-.01-.11-.18-.2-.2-.31-.67-.17-1.54.13-2.34-.11-1.13-.33-1.04-1.08-1.23-2.09-.61-3.18-2.51-1.34-4.63-1.79-.29-.06-.12-.92-.15-1.18,0-.74-.3-1.38-.32-2.03-.02-.67.27-.9.46-1.5.36-1.09-1.39-1.65-.81-2.98.27-.61,1.43-.64,1.43-1.07,0-.64-1.67-2.06-.51-2.53.76-.31.23-.38.22-.98l-.82-2.08c.64-.68.88-1.61,1.25-2.55.5-1.29.98-2.53,1.63-3.78.48-.9,2.23-1.52,3.18-1.7.91-.18,1.85-.69,2.82-1.4,1.2-.9,2.54-2.17,3.29-3.01,1.45-1.64,3.31-2.97,5.12-4.18,1.38-.92,2.81-1.92,4.48-2.49.53-.18,1.14-.29,1.76-.33,2.21-.15,4.79.52,6.42,1.62,1.1.74,2.02,1.09,1.52,2.77-.49,1.62-1.61,2.22-2.36,3.6-.15.27-.67.59-1.29.9l.8,3.67Z"/>
        <path class="cls-8" d="m151.71,123.67c-.12-.45-1.83-2.18-2.29-2.33,0-.03-.01-.04-.01-.07,1-.25,1.66-3.08,2.11-3.95.43-.83.67-1.64.64-2.58-.02-.64-.44-1.36-.44-1.85.23-.64-.27-1.02,0-1.57.17-.35.65-.81.65-1.2,0-.6-1.33-.89-.8-1.79.15-.25.57-.39.81-.57.31-.23.69-.72.8-1.09l.35-1.07c.69-.05,1.51.35,2.26.37,1.43.03,2.4.32,3.82-.22,1.4-.54,2.57-1.54,3.95-2.14l.99-.61c1.13.78,2.1.9,3.4,1.16,1.02.2,2.15.05,3.02.71.52.39,1.38.71,2.03.47,1.82-.69,3.99-2.32,3.61-4.53-.33-1.89-3.57-2.24-5.13-2.04-1.36.18-1.67.83-2.71,1.38-.55.29-.79-.11-1.38-.31l.06-1.25,2.46-.73c.76-.09,1.21-.34,2.01-.18.76.15.84-.57,1.45-.62,1.12-.07,1.41-.58,2.32-1.08.74-.41,1.99-.56,2.84-.56.67.07,1.12.03,1.76-.1.68-.14.52.39,1.05.53,1,.26,1.93.04,2.38,1.11.28.66,1.08.78,1.69.97.46.14.51.59.99.73,1.93.57,3,1.77,4.23,3.28.68,1.38,2.74,1.02,3.11,2.46.44,1.68,1.47,2.36,2.87,3.28l1.29.38c0,.39.09.79.09,1.2,0,.35-.04.69-.03,1.05.03.84,1.42.95.89,1.98-.2.38-.65,1.25-1.11,1.29-.49.35-1.59,1.99-1.23,2.64.47.84,1.28.94,2.1.61,3-1.18,1.89.64,2.53,2.36.16.44.1.41-.41.46l-1.42.13c-.57.05-1-.09-.69.59.14.31.75,1.31.56,1.58-.22.34-1.23,1.08-1.6,1.2-.37.56-1.1,1.2-.25,1.74.53.34.95.55.81,1.24-.24,1.17-1.92,2.08-2.59,3.04-.49.7-.54,1.52-1.08,2.16-.2.23-.66.41-.77.67-.18.42.34,1.05.33,1.5.19.44.6.57.99.82.15.09.53.32.46.53-.22.67-1.22.72-1.45,1.39l-.9.24c-.67.13-1.4.89-2.15.7-.77-.2-.44-.91-.86-1.32-.26-.26-.63-.25-.89-.47-.26-.22-.26-.78-.49-.85-.53-.16-1.51-.03-1.79-.63-.44-.93-.49-1.48-1.24-2.29-.4-.43-.49-.96-.7-1.47-.42-1.68.11-2.44-1.4-3.66-1.02-.82-3.07.36-4.2.66-.81.22-1.78.49-2.55.83-1,.46-2.34,1.04-3.39,1.01l-1.47-.86c-.16.15-.38.26-.66.31-1.01.2-2.38.61-3.56,1.27-.37-.39-.97-2.25-1.77-2.02-1.1.32-1.25,1.3-2.29,1.66-.62.22-.89.63-1.58.35-.37-.15-1.98-.19-2.03-.31-.19-.5.41-1.68.3-1.85-.28-.43-.58-.49-.58-1.07,0-.54.04-1.01-.01-1.55v-1.44c-.73,0-1.7.45-2.47.57-.9.15-1.69.3-2.57.54-.59.16-1.2-.13-1.72-.38l-1.35-.59Z"/>
        <path class="cls-1" d="m151.71,123.67c-.12-.45-1.83-2.18-2.29-2.33,0-.03-.01-.04-.01-.07,1-.25,1.66-3.08,2.11-3.95.43-.83.67-1.64.64-2.58-.02-.64-.44-1.36-.44-1.85.23-.64-.27-1.02,0-1.57.17-.35.65-.81.65-1.2,0-.6-1.33-.89-.8-1.79.15-.25.57-.39.81-.57.31-.23.69-.72.8-1.09l.35-1.07c.69-.05,1.51.35,2.26.37,1.43.03,2.4.32,3.82-.22,1.4-.54,2.57-1.54,3.95-2.14l.99-.61c1.13.78,2.1.9,3.4,1.16,1.02.2,2.15.05,3.02.71.52.39,1.38.71,2.03.47,1.82-.69,3.99-2.32,3.61-4.53-.33-1.89-3.57-2.24-5.13-2.04-1.36.18-1.67.83-2.71,1.38-.55.29-.79-.11-1.38-.31l.06-1.25,2.46-.73c.76-.09,1.21-.34,2.01-.18.76.15.84-.57,1.45-.62,1.12-.07,1.41-.58,2.32-1.08.74-.41,1.99-.56,2.84-.56.67.07,1.12.03,1.76-.1.68-.14.52.39,1.05.53,1,.26,1.93.04,2.38,1.11.28.66,1.08.78,1.69.97.46.14.51.59.99.73,1.93.57,3,1.77,4.23,3.28.68,1.38,2.74,1.02,3.11,2.46.44,1.68,1.47,2.36,2.87,3.28l1.29.38c0,.39.09.79.09,1.2,0,.35-.04.69-.03,1.05.03.84,1.42.95.89,1.98-.2.38-.65,1.25-1.11,1.29-.49.35-1.59,1.99-1.23,2.64.47.84,1.28.94,2.1.61,3-1.18,1.89.64,2.53,2.36.16.44.1.41-.41.46l-1.42.13c-.57.05-1-.09-.69.59.14.31.75,1.31.56,1.58-.22.34-1.23,1.08-1.6,1.2-.37.56-1.1,1.2-.25,1.74.53.34.95.55.81,1.24-.24,1.17-1.92,2.08-2.59,3.04-.49.7-.54,1.52-1.08,2.16-.2.23-.66.41-.77.67-.18.42.34,1.05.33,1.5.19.44.6.57.99.82.15.09.49.31.46.53-.11.86,1.16,4.7-1.45,1.39h0c-.67.13-2.31,1.13-3.05.94-.77-.2-.44-.91-.86-1.32-.26-.26-.63-.25-.89-.47-.26-.22-.26-.78-.49-.85-.53-.16-1.51-.03-1.79-.63-.44-.93-.49-1.48-1.24-2.29-.4-.43-.49-.96-.7-1.47-.42-1.68.11-2.44-1.4-3.66-1.02-.82-3.07.36-4.2.66-.81.22-1.78.49-2.55.83-1,.46-2.34,1.04-3.39,1.01l-1.47-.86c-.16.15-.38.26-.66.31-1.01.2-2.38.61-3.56,1.27-.37-.39-.97-2.25-1.77-2.02-1.1.32-1.25,1.3-2.29,1.66-.62.22-.89.63-1.58.35-.37-.15-1.98-.19-2.03-.31-.19-.5.41-1.68.3-1.85-.28-.43-.58-.49-.58-1.07,0-.54.04-1.01-.01-1.55v-1.44c-.73,0-1.7.45-2.47.57-.9.15-1.69.3-2.57.54-.59.16-1.2-.13-1.72-.38l-1.35-.59Z"/>
        <path class="cls-8" d="m152.35,85.02l5.79-.13c2,.14,4.92-.56,6.54.6.16,1.55.04,2.6.98,3.91.85.17,1.91,1.53,2,2.36.08.55.25,1.04.27,1.59.03.87-.04,1.73-.04,2.61,0,.75.24,1.46.24,2.18l2.46-.74c.76-.09,1.21-.34,2.02-.18.75.15.84-.58,1.45-.62,1.12-.07,1.41-.58,2.33-1.09.74-.41,1.99-.56,2.84-.56.67.07.75.3,1.39.17.68-.14.63.38,1.17.52,1,.26,1.62-.04,2.07,1.04.28.67,1.21.89,1.82,1.08.46.14.66.58,1.14.73,1.93.57,3.02,2.1,4.25,3.63.68,1.38,2.63,1.12,3.01,2.56.44,1.7,1.71,2.08,3.11,3.01h1.44c.69-.45.71-1.39.21-1.98-.32-.38-.2-1.48-.27-1.99-.16-.08-.79-.38-.89-.49-.27-.31-.38-1.31-.38-1.73.11-.67-.28-1.56-.39-2.25-.11-.72-1.43-2.15-.61-2.76.84-.63,1.08-2.09,1.38-3.04-.78.15-1.8.07-2.61.19l-.63-1.94c0-.36.49-1.36.22-1.54-.71-.47-2.71-1.75-1.02-2.49.51-.22,1.03-.82,1.48-.96.59-.19,2.37-.13,2.72-.44.26-.22-.5-1.23-.62-1.49-.49-1.05,1.39-.75.62-1.89-.49-.74.09-.64.21-1.26.11-.57-.29-1.29-.03-1.81.37-.39.6-.74,1.03-1.12.32-.28.54-.21.71-.69.15-.41.68-1.64.35-1.89-1.32-.99-1.29-1.68-1.69-3.17-.4-1.5-1.65-1.6-2.12-2.95-.49-.78-1.32-1.43-1.76-2.25l-.72-1.33c-.17-.31-.67-.74-.74-1.02.52-.39,2.39.18,3.04.18,0-.31-.23-.31-.09-.69.23-.63.51-1.05.49-1.76-.01-.36-.26-.9-.4-1.25-.26-.64.2-.84-.45-1.44-.52-.49.28-1.26-.49-1.6-.34-.25-1.03-1.24-1.45-1.35-.48-.12-1.12.95-1.58.72l-.5-.13-.53.64c-.76.34-.3-.2-1.12-.2,0,1.02-3.65,2.85-4.04,4.09-.29.93-.09,2.14-1.17,2.66-.68.32-1.4.51-1.97,1.02-.75.67-1.53,1.51-2.38,1.99-1,.57-1.51.64-2.32,1.55-1.12,1.09-2.14,1.61-3.73,1.61-1.47,0-2.7-.7-4.01-.8-1.5-.12-3.05.68-4.53-.03-1.61-.78-1.9-2.59-3.24-3.26-.94-.25-3.62-.89-4.04.18-.98,2.48-1.35.29-2.23,1.06-.46.4-.72,1.54-1.17,2.07-.74.86-1.11-.2-2.13-.01-.92.16-2.47-1.05-3.54-1.27-.68-.36-1.5-.47-2.04.25-.42.56-.42,1.44-.42,2.11l.15.76c2.26-.15,4.9.52,6.57,1.61,1.13.74,2.08,1.09,1.56,2.76-.5,1.62-1.65,2.21-2.41,3.59-.15.27-.69.59-1.33.89l.82,3.66Z"/>
        <path class="cls-1" d="m152.35,85.02l5.79-.13c2,.14,4.92-.56,6.54.6.16,1.55.04,2.6.98,3.91.85.17,1.91,1.53,2,2.36.08.55.25,1.04.27,1.59.03.87-.04,1.73-.04,2.61,0,.75.24,1.46.24,2.18l2.46-.74c.76-.09,1.21-.34,2.02-.18.75.15.84-.58,1.45-.62,1.12-.07,1.48-.44,2.4-.94.74-.41,1.89-.39,2.73-.39.67.07.76.13,1.4,0,.68-.14.49.47,1.03.61,1,.26,1.67-.02,2.12,1.05.28.67,1.19.83,1.8,1.02.46.14.89.55,1.37.7,1.93.57,2.65,1.99,3.88,3.51.68,1.38,2.46.76,2.83,2.21.44,1.7,2.13,2.52,3.53,3.45l1.46-.13c.69-.45.71-1.39.21-1.98-.32-.38-.2-1.48-.27-1.99-.16-.08-.79-.38-.89-.49-.27-.31-.38-1.31-.38-1.73.11-.67-.28-1.56-.39-2.25-.11-.72-1.43-2.15-.61-2.76.84-.63,1.08-2.09,1.38-3.04-.78.15-1.8.07-2.61.19l-.63-1.94c0-.36.49-1.36.22-1.54-.71-.47-2.71-1.75-1.02-2.49.51-.22,1.03-.82,1.48-.96.59-.19,2.37-.13,2.72-.44.26-.22-.5-1.23-.62-1.49-.49-1.05,1.39-.75.62-1.89-.49-.74.09-.64.21-1.26.11-.57-.29-1.29-.03-1.81.37-.39.6-.74,1.03-1.12.32-.28.54-.21.71-.69.15-.41.68-1.64.35-1.89-1.32-.99-1.29-1.68-1.69-3.17-.4-1.5-1.65-1.6-2.12-2.95-.49-.78-1.32-1.43-1.76-2.25l-.72-1.33c-.17-.31-.67-.74-.74-1.02.52-.39,2.39.18,3.04.18,0-.31-.23-.31-.09-.69.23-.63.51-1.05.49-1.76-.01-.36-.26-.9-.4-1.25-.26-.64.2-.84-.45-1.44-.52-.49-.12-1.89-.9-2.23-.34-.25-.63-.85-1.05-.95-.48-.12-.28.96-1,1.43l-.42.24-1.8-.5c-.76.34-.76,1.22-1.58,1.22,0,1.02-2.57,1.72-2.96,2.96-.29.93-.09,2.14-1.17,2.66-.68.32-1.4.51-1.97,1.02-.75.67-1.12,1.74-1.98,2.23-1,.57-1.42.68-2.23,1.6-1.12,1.09-2.74,1.09-4.34,1.09-1.47,0-2.59-.45-3.9-.55-1.5-.12-3.05.68-4.53-.03-1.61-.78-1.9-2.59-3.24-3.26-.94-.25-3.62-.89-4.04.18-.98,2.48-1.35.29-2.23,1.06-.46.4-.72,1.54-1.17,2.07-.74.86-1.11-.2-2.13-.01-.92.16-2.47-1.05-3.54-1.27-.68-.36-1.5-.47-2.04.25-.42.56-.42,1.44-.42,2.11l.15.76c2.26-.15,4.9.52,6.57,1.61,1.13.74,2.08,1.09,1.56,2.76-.5,1.62-1.65,2.21-2.41,3.59-.15.27-.69.59-1.33.89l.82,3.66Z"/>
        <path class="cls-8" d="m134.33,117.31c.52.11.6.02,1.06-.14.3-.11.85-.64,1.09-.64.03.04.02.06.06.09.13,1.44,1.81,1.62,2.33,2.61.42.81.99.56,1.77.44.83-.14,1.68.11,2.51.11,1.01.5,1.05.92,1.81,1.69.32.32.81,1.05,1.03,1.44.41.72-.98,1.52-1.57,1.81-.91.45.3,1.4.3,2.19.73.24,2.92-1.19,3.55-1.63.6-.42.83-.71.91.16l.16,1.83h.01c.72.01,1.44-.55,1.58-1.35.15-.9.82-1.62,1.25-2.34l1.64.98c.53.27.89.05,1.49-.11.9-.25,1.64-.33,2.56-.48.78-.13,1.06-.68,1.82-.68l1.04,2c.05.56.01,1.04.01,1.6,0,.6.3.66.59,1.1.11.18-.36,1.02-.16,1.54.05.12,1.28.38,1.64.18,1.47-.81,1.34-.31,1.73-.75,1.1-1.24,1.29-2.02,2.52-.82.61.59,1.28.54,1.65.95,1.21-.68,2.53-.6,3.56-.81.29-.06.74.46.9.31l1.25.13c1.07.03,2.29-.6,3.31-1.06.78-.36,1.94-.54,2.76-.76,1.15-.31,3.49-.86,4.53-.01,1.55,1.26,1.01,2.05,1.44,3.78.21.52.3,1.07.71,1.51.76.83.82,1.4,1.27,2.36.29.61,1.29.48,1.83.65.24.08.23.65.5.88.27.23.64.22.91.49.42.42.66-.29,1.44-.08.76.19.94.85,1.62.72l.92-.24c.82.05,1.77.39,1.77,1.32,0,.53.94,2.13.41,2.34-.54.22-2.74-.01-3.17.46-.52.58.07,2.54-.8,2.57-1.23.05-1.55-1.77-2.07-2.22s.75,1.12.41,1.49c-.31.34-.47-.73-1.19.29-.25.38-.35.83-.62,1.2-.32.42-.78.53-1.01,1.06-.51,1.14,1.64,1.87,2.33,2.04,0,.73-1.05,1.29-1.23,1.97-.2.8.25,1.84-.04,2.55-.14.35-3.83.8-4.41.82.19.58,1.18,1.23,1.57,1.72.66.83.23,1.53.23,2.37.68.23,1.58.44,2.34.47.69.03.69,1.75.74,2.27.11,1.12-1.43,3.93-2.78,3.66-.33.45-.98.75-1.5.94-.52.19.04.48.2.92.4,1.16.23,1.76.11,2.93-.26,2.45-2.11,4.62-3.81,6.32-.99.99,1.96-.27,1.96,1.03,0,1.22-1.69,1.95-1.74,3.24-.04.91-.5,2.23.42,2.67,2.53,1.22,1.63,3.67,1.63,5.91,0,1.14-.99,1.54-1.4,2.42-.45.95.09,1.16.32,1.97.11.37-.09,1.03-.15,1.42-.14.87-.94.63-.29,1.57.6.87.25,1.62-.79,1.83.05.2.6.6.74.83.18.29.29.72.29,1.06-.03.58-.56,1.77-.41,2.24.14.42.63.62.89.97.63.84-.58,1.72.53,2,.67.16,1.2.24,1.63.83.74,1.01.95,1.95,1.98,2.81.42.35,2.36,2.42,2.36,2.9-.55,0-1.09-.33-1.63-.39-1.41-.11-2.04.18-3.17,1.04-.36.27-2.23,1.69-2.55,1.39-1.87-1.73-3.21.61-4.74,1.1,0,.03-.01.04.01.04,0,.22,1.42,1.59,1.65,1.65,0,.2-1.48,1.19-1.74,1.4-.53.46-1.65.39-2.33.44-.8,0-2.8.5-2.19,1.65.69,1.32-.76.08-1.13.08-.44,0-.79.84-1.12,1.12l-.68.56c-.55.45,1.52.8,1.46,1.06-.08.4.11,1.29-.03,1.54-.14.25-.94-.46-1.22-.23-3.83,3.29,3.16,4.09-2.16,4.09-1.23,0-1.77.76-2.79,1.04l-2.33.38c.06.96.99,1.57,1.63,2.18.24.23.46.65.57.93l-.57.39c-.39.39-.1,1.04-.82,1.13l-1.68.23c-1.32.18-2.56,1.46-3.28.08-.19-.38-1.2.82-1.51.82,0-.02,0-.01-.03-.01-.3-1.22-1.37-1.96-2.58-1.77-1.02.16-.97-3.15-1.77-3.02-1.11.17-1.08.11-1.08-1.21l-2.18.48c-.54.12-.75,1.25-1.22,1.72-.41.57-.71.92-.97,1.61-.17.46-.27,1.21-.54,1.59-.96,1.36-.74.39-1.96-.03-.95-.33-1.26-.31-2.25-.27-.4.01-.45-.44-.72-.42-1.31.1-.83,1.47-1.62,1.97-.68.42-.87,1.03-1.44,1.47-1.78,1.38-1.39-.72-1.01-1.8l.83-2.37c-.51.17-1.31.16-1.87.14-1.04-.05-.29-.26-.18-.98.34-.82.89-1.58.89-2.51,0-1.22-.61-.41-1.4-.33-.37.04-.72.83-.77.79-.46-.34-.87-.95-1.1-1.45-.61-1.3-1.31.45-1.75-.14-.3-.41-.53-.9-.92-1.25-.19-.17-1.19-1.16-1.24-1.3,0,.36-.14,1.05-.23,1.42-.16.7-.76.62-1.24.95-.39.27-.71.52-1.06.86-.29.29.12.71-.08,1.04-.19.33-.58.56-.86.82-.91.83.39.87.27,1.68-.05.33-.47,1.16-.69,1.38-.36.35-.87-.2-1.19-.47-.86-.69-.95-.22-1.24.65-.84,0-1.77-.97-2.57-.97,0,.48.23,1.76.52,2.16.48.66,1.53,1.01,1.53,2.03-1.18.29-3.59.12-4.86.03-.9-.07-1.74.16-2.61.35-.24.05-1.7.49-1.7.11,0-1.29.89-2.57-.83-2.57-.94,0-1.11.93-1.87,1.38-1.06.62-.65,1.98-1.68,1.92l-5.83-.33c0,.37-.11,1.27-.38,1.5-.31.31-1.25,1.45-1.72,1.33-.64-.16-.44-1.1-1.48-1.1-1.73,0-3.3,1.76-5.01.68-.67-.42-2.04-.1-2.81-.05-1.01.07-2.99-.07-2.18-1.57.25-.45,1.33.14,1.38-.51.04-.61-1.73-.63-2.11-.57-1.25.17-1.03-.93-1.24-1.97-.3-1.5-.2-1.48,1.32-2.27.95-.49,1.88.75,1.57-1.16,0-1.48-1.75-.91-.01-2.08,1.16-.79-.66-2.03-1.19-2.77-.6-.83-1.05-1.07.07-1.57.61-.27.08-2.72.08-3.34.59-.19,2.29-1.04,2.31-1.74,0-1.34-1.88-1.21-1.25-2.9.71-1.92-1.5-1.02-2.33-1.3,0-.46.65-1.35.86-1.8.35-.74.42-1.5.68-2.25.11-.33.53-1.03.53-1.35-.5,0-1.01-.05-1.51-.01-1.69-.4-2.76-1.11-4.59-.83-1.26.2-2.66,1.05-2.31-.99.18-1.08.33-.5-.56-.89,0-.52,0-.79.53-.95.63-.19.34-.74.82-.98.31-.16.76.19.95-.26.1-.23-.26-.97-.3-1.24-.1-.67-.15-1.4-.12-2.08.02-.47.42-.69.56-1.1.59-1.03-.92-.42-1.31-.79-.51-.48.22-1.49-.06-1.99-.27-.48-.37-.76-.41-1.36-.03-.36-.27-.44-.57-.51-.19-.05-.7-.18-.88-.18l-.94-1.53c0-.48.38-.83.27-1.36-.15-.71.06-1.81.53-2.39.49-.6,1.47-.37,2.16-.37-.26-1.03-.29-2.64.08-3.67.46-1.33,2.02-3.02,2.08-4.28.1-1.17.99-2.21,1.9-2.9.9-.68,2.15-.54,3.22-.54.19-.59.22-1.78.06-2.4-1.01,0-1.19.62-2.4.04-1.09-.51-1.77-.69-1.77-2.07-.98,0-1.27.3-2.19-.39-1.02-.77-.84-1.89-.84-3.13.3-.54.29-1.28,1.19-.95,1.6.57,2.95-.18,4.46.23.56.15,1.85,1.42,2.06,1.42.52,0,.71-.45,1.55-.3.49.09.82-.48,1.39-.3,1.05.32.73.59,2.01.3l2.16-.48c-1.13,0-.39-3.27-.05-3.85l1.95-3.27c.33-.2,1.24-1.39,1.15-1.77-1.04-.21-.74-.34-.74-1.15,0-.56.08-1.29.19-1.84.09-.43,1.46-.49,1.91-.68.33-.14.97-.03,1.22-.32.3-.34.78-.91.92-1.35.1-.11.56-.62.59-.76.02,0,.03,0,.05-.01-.29,0-2.43-.81-2.52-1.07-.39-1.11-.23-1.16-1.15-1.89-.57-.46-1.02-.26-.91-1.18.1-.79.74-1.93-.36-2.21-.78-.2-1.75.37-2.55.16,0-1.11.16-.77-.91-1.39-.35-.2-.29-1.99-.33-2.48,0-.37-.04-.63.05-.97.82,0,1.89,1.27,2.96,1.27,0-1.84.79-3.66.79-5.56,0-.72.48-.56,1.09-.52,1.49.1.09-1.26,1.1-1.77.61-.31,1.82.09,2.45.26.65.17.73-1.77,2.54-.61,1.4.9,1.3.74,2.12-.77.07-.36-.08-.95.16-1.21.63-.67,1.02.25,1.47.48.55.3.35-.98.44-1.19.3-.78.97-1.41,1.17-2.19.23-.94.9-1.08.68-2.19.19-.54,1.12-.75,1.01-1.3-.3-.22-1.01-1.16-1.22-1.5-.28-.08-1.93-1.27-1.93-1.48,2.1-1.57,3.7-1.54,6.09-1.01,1.45.32,1.19-.91,1.19-1.81,0-.5,1.68-1.94,2.08-2.28.74.23,1.1.54,1.74.86.15.07.9-.99,1.12-1.16.39-.3.91-1.25,1.5-1.04.39.14,1.43.91,1.51,1.33.3.08.92-.25,1.09-.53.29-.48.23-1.79.23-2.39,0-.76-.84-1.46-.84-1.92.67-.17,1.24-.45,2.01-.56.26.16.44.2.57.48.16.35.3.63.71.74.48.12.95-.04,1.42-.14l.72-.03Z"/>
        <path class="cls-1" d="m134.23,117.54c.52.11.6.02,1.06-.14.3-.11.85-.64,1.09-.64.03.04.02.06.06.09.13,1.44,1.81,1.62,2.33,2.61.42.81.99.56,1.77.44.83-.14,1.68.11,2.51.11,1.01.5,1.05.92,1.81,1.69.32.32.81,1.05,1.03,1.44.41.72-.98,1.52-1.57,1.81-.91.45.3,1.4.3,2.19.73.24,2.92-1.19,3.55-1.63.6-.42.83-.71.91.16l.16,1.83h.01c.5-.61,1.44-.55,1.58-1.35.15-.9.7-1.8,1.13-2.52l1.75.89c.53.27.83.17,1.43,0,.9-.25,1.78-.4,2.7-.56.78-.13,1.24-.46,2-.46l.33,2.12c.05.56.48.94.48,1.5,0,.6.3.66.59,1.1.11.18-.28.89-.09,1.41.05.12,1.32-.02,1.7.13.71.29.7-.41,1.33-.63,1.07-.37.71-1.1,1.83-1.43.82-.24,1.55,1.53,1.93,1.93,1.21-.68,2.68-.89,4.08-1.33.64-.2,1.56,1.05,1.65.86l1.07-.37c1.07.03,2.27-.96,3.34-1.28.9-.26,1.71-.43,2.54-.64,1.15-.31,3.26-.61,4.29.24,1.55,1.26,1.01,2.05,1.44,3.78.21.52.3,1.07.71,1.51.76.83.82,1.4,1.27,2.36.29.61,1.29.48,1.83.65.24.08.23.65.5.88.27.23.64.22.91.49.42.42.29-.33,1.07-.13.76.19,1.02.13,1.71,0l1.21.53c.82.05,1.77.39,1.77,1.32,0,.53.94,2.13.41,2.34-.54.22-1.28,0-1.71.47-.52.58-1.29,2.31-2.16,2.34-1.23.05-1.17-2.18-2.07-2.22-.68-.04.64,1.34.3,1.71-.31.34-.47-.73-1.19.29-.25.38-.35.83-.62,1.2-.32.42-.78.53-1.01,1.06-.51,1.14,1.64,1.87,2.33,2.04,0,.73-1.05,1.29-1.23,1.97-.2.8.25,1.84-.04,2.55-.14.35-3.83.8-4.41.82.19.58,1.18,1.23,1.57,1.72.66.83.23,1.53.23,2.37.68.23,1.58.44,2.34.47.69.03.69,1.75.74,2.27.11,1.12-1.43,3.93-2.78,3.66-.33.45-.98.75-1.5.94-.52.19.04.48.2.92.4,1.16.23,1.76.11,2.93-.26,2.45-2.11,4.62-3.81,6.32-.99.99,1.96-.27,1.96,1.03,0,1.22-1.69,1.95-1.74,3.24-.04.91-.5,2.23.42,2.67,2.53,1.22,1.63,3.67,1.63,5.91,0,1.14-.99,1.54-1.4,2.42-.45.95.09,1.16.32,1.97.11.37-.09,1.03-.15,1.42-.14.87-.94.63-.29,1.57.6.87.25,1.62-.79,1.83.05.2.6.6.74.83.18.29.29.72.29,1.06-.03.58-.56,1.77-.41,2.24.14.42.63.62.89.97.63.84-.58,1.72.53,2,.67.16,1.2.24,1.63.83.74,1.01.95,1.95,1.98,2.81.42.35,2.36,2.42,2.36,2.9-.55,0-1.09-.33-1.63-.39-1.41-.11-2.04.18-3.17,1.04-.36.27-2.23,1.69-2.55,1.39-1.87-1.73-3.21.61-4.74,1.1,0,.03-.01.04.01.04,0,.22,1.42,1.59,1.65,1.65,0,.2-1.48,1.19-1.74,1.4-.53.46-1.65.39-2.33.44-.8,0-2.8.5-2.19,1.65.69,1.32-.76.08-1.13.08-.44,0-.79.84-1.12,1.12l-.68.56c-.55.45,1.52.8,1.46,1.06-.08.4.11,1.29-.03,1.54-.14.25-.94-.46-1.22-.23-3.83,3.29,3.16,4.09-2.16,4.09-1.23,0-1.77.76-2.79,1.04l-2.33.38c.06.96.99,1.57,1.63,2.18.24.23.46.65.57.93l-.57.39c-.39.39-.1,1.04-.82,1.13l-1.68.23c-1.32.18-2.56,1.46-3.28.08-.19-.38-1.2.82-1.51.82,0-.02,0-.01-.03-.01-.3-1.22-1.37-1.96-2.58-1.77-1.02.16-.97-3.15-1.77-3.02-1.11.17-1.08.11-1.08-1.21l-2.18.48c-.54.12-.75,1.25-1.22,1.72-.41.57-.71.92-.97,1.61-.17.46-.27,1.21-.54,1.59-.96,1.36-.74.39-1.96-.03-.95-.33-1.26-.31-2.25-.27-.4.01-.45-.44-.72-.42-1.31.1-.83,1.47-1.62,1.97-.68.42-.87,1.03-1.44,1.47-1.78,1.38-1.39-.72-1.01-1.8l.83-2.37c-.51.17-1.31.16-1.87.14-1.04-.05-.29-.26-.18-.98.34-.82.89-1.58.89-2.51,0-1.22-.61-.41-1.4-.33-.37.04-.72.83-.77.79-.46-.34-.87-.95-1.1-1.45-.61-1.3-1.31.45-1.75-.14-.3-.41-.53-.9-.92-1.25-.19-.17-1.19-1.16-1.24-1.3,0,.36-.14,1.05-.23,1.42-.16.7-.76.62-1.24.95-.39.27-.71.52-1.06.86-.29.29.12.71-.08,1.04-.19.33-.58.56-.86.82-.91.83.39.87.27,1.68-.05.33-.47,1.16-.69,1.38-.36.35-.87-.2-1.19-.47-.86-.69-.95-.22-1.24.65-.84,0-1.77-.97-2.57-.97,0,.48.23,1.76.52,2.16.48.66,1.53,1.01,1.53,2.03-1.18.29-3.59.12-4.86.03-.9-.07-1.74.16-2.61.35-.24.05-1.7.49-1.7.11,0-1.29.89-2.57-.83-2.57-.94,0-1.11.93-1.87,1.38-1.06.62-.65,1.98-1.68,1.92l-5.83-.33c0,.37-.11,1.27-.38,1.5-.31.31-1.25,1.45-1.72,1.33-.64-.16-.44-1.1-1.48-1.1-1.73,0-3.3,1.76-5.01.68-.67-.42-2.04-.1-2.81-.05-1.01.07-2.99-.07-2.18-1.57.25-.45,1.33.14,1.38-.51.04-.61-1.73-.63-2.11-.57-1.25.17-1.03-.93-1.24-1.97-.3-1.5-.2-1.48,1.32-2.27.95-.49,1.88.75,1.57-1.16,0-1.48-1.75-.91-.01-2.08,1.16-.79-.66-2.03-1.19-2.77-.6-.83-1.05-1.07.07-1.57.61-.27.08-2.72.08-3.34.59-.19,2.29-1.04,2.31-1.74,0-1.34-1.88-1.21-1.25-2.9.71-1.92-1.5-1.02-2.33-1.3,0-.46.65-1.35.86-1.8.35-.74.42-1.5.68-2.25.11-.33.53-1.03.53-1.35-.5,0-1.01-.05-1.51-.01-1.69-.4-2.76-1.11-4.59-.83-1.26.2-2.66,1.05-2.31-.99.18-1.08.33-.5-.56-.89,0-.52,0-.79.53-.95.63-.19.34-.74.82-.98.31-.16.76.19.95-.26.1-.23-.26-.97-.3-1.24-.1-.67-.15-1.4-.12-2.08.02-.47.42-.69.56-1.1.59-1.03-.92-.42-1.31-.79-.51-.48.22-1.49-.06-1.99-.27-.48-.37-.76-.41-1.36-.03-.36-.27-.44-.57-.51-.19-.05-.7-.18-.88-.18l-.94-1.53c0-.48.38-.83.27-1.36-.15-.71.06-1.81.53-2.39.49-.6,1.47-.37,2.16-.37-.26-1.03-.29-2.64.08-3.67.46-1.33,2.02-3.02,2.08-4.28.1-1.17.99-2.21,1.9-2.9.9-.68,2.15-.54,3.22-.54.19-.59.22-1.78.06-2.4-1.01,0-1.19.62-2.4.04-1.09-.51-1.77-.69-1.77-2.07-.98,0-1.27.3-2.19-.39-1.02-.77-.84-1.89-.84-3.13.3-.54.29-1.28,1.19-.95,1.6.57,2.95-.18,4.46.23.56.15,1.85,1.42,2.06,1.42.52,0,.71-.45,1.55-.3.49.09.82-.48,1.39-.3,1.05.32.73.59,2.01.3l2.16-.48c-1.13,0-.39-3.27-.05-3.85l1.95-3.27c.33-.2,1.24-1.39,1.15-1.77-1.04-.21-.74-.34-.74-1.15,0-.56.08-1.29.19-1.84.09-.43,1.46-.49,1.91-.68.33-.14.97-.03,1.22-.32.3-.34.78-.91.92-1.35.1-.11.56-.62.59-.76.02,0,.03,0,.05-.01-.29,0-2.43-.81-2.52-1.07-.39-1.11-.23-1.16-1.15-1.89-.57-.46-1.02-.26-.91-1.18.1-.79.74-1.93-.36-2.21-.78-.2-1.75.37-2.55.16,0-1.11.16-.77-.91-1.39-.35-.2-.29-1.99-.33-2.48,0-.37-.04-.63.05-.97.82,0,1.89,1.27,2.96,1.27,0-1.84.79-3.66.79-5.56,0-.72.48-.56,1.09-.52,1.49.1.09-1.26,1.1-1.77.61-.31,1.82.09,2.45.26.65.17.73-1.77,2.54-.61,1.4.9,1.3.74,2.12-.77.07-.36-.08-.95.16-1.21.63-.67,1.02.25,1.47.48.55.3.35-.98.44-1.19.3-.78.97-1.41,1.17-2.19.23-.94.9-1.08.68-2.19.19-.54,1.12-.75,1.01-1.3-.3-.22-1.01-1.16-1.22-1.5-.28-.08-1.93-1.27-1.93-1.48,2.1-1.57,3.7-1.54,6.09-1.01,1.45.32,1.19-.91,1.19-1.81,0-.5,1.68-1.94,2.08-2.28.74.23,1.1.54,1.74.86.15.07.9-.99,1.12-1.16.39-.3.91-1.25,1.5-1.04.39.14,1.43.91,1.51,1.33.3.08.92-.25,1.09-.53.29-.48.23-1.79.23-2.39,0-.76-.84-1.46-.84-1.92.67-.17,1.24-.45,2.01-.56.26.16.44.2.57.48.16.35.3.63.71.74.48.12.95-.04,1.42-.14l.72-.03Z"/>
        <path class="cls-8" d="m132.18,82.45c-1.02.72-2.01,1.25-2.96,1.43-.99.19-2.83.82-3.33,1.73-.69,1.27-1.19,2.53-1.71,3.84-.38.96-.64,1.91-1.31,2.59l.85,2.12c.01.61.56.68-.23.99-1.22.48.53,1.92.53,2.57,0,.44-1.22.46-1.5,1.08-.6,1.35,1.23,1.91.85,3.03-.2.6-.51.84-.49,1.52.02.66.33,1.31.33,2.07.03.27-.14,1.14.15,1.2,2.22.46,4.21-1.41,4.85,1.82.2,1.03.11,1.79,1.29,2.12.84.23,1.75-.07,2.45.1.03.11.2.2.21.32.11.01.46.59.54.71.47.68.77.32.45,1.16-.34.91,1.01.68,1.61.68.46.08.85.01,1.23.31.45.36.6,1.36.3,1.84-.21.34-.65.53-.94.78-.26.23-.55.75-.65,1.09l-.73.03c-.47.1-.95.26-1.42.14-.42-.11-.55-.38-.71-.74-.13-.28-.31-.32-.57-.48-.77.11-1.35.39-2.02.56,0,.46.85,1.16.85,1.91,0,.6.06,1.9-.23,2.38-.17.28-.79.6-1.09.53-.09-.42-1.13-1.18-1.52-1.32-.58-.21-1.11.75-1.5,1.04-.22.17-.97,1.23-1.12,1.16-.64-.32-.99-.63-1.74-.86-.41.34-2.09,1.78-2.09,2.27,0,.9.26,2.12-1.2,1.81-2.4-.52-4-.55-6.1,1.01,0,.21,1.66,1.4,1.94,1.48.21.33.93,1.27,1.23,1.49.11.55-.83.76-1.02,1.29.22,1.1-.45,1.24-.68,2.18-.19.78-.87,1.41-1.17,2.18-.08.21.12,1.48-.44,1.19-.44-.23-.84-1.15-1.47-.48-.25.26-.1.85-.17,1.2-.82,1.51-.72,1.67-2.12.77-1.81-1.16-1.89.78-2.55.6-.63-.17-1.84-.57-2.45-.26-1.02.5.38,1.86-1.1,1.76-.61-.04-1.09-.2-1.09.51,0,1.89-.79,3.71-.79,5.54-1.07,0-2.14-1.26-2.97-1.26-.08.33-.04.6-.04.96.04.49-.02,2.26.33,2.47,1.06.62.91.28.91,1.39.8.2,1.78-.36,2.56-.16,1.1.28.46,1.41.37,2.2-.11.91.33.72.91,1.17.93.73.76.78,1.15,1.88.09.26,2.24,1.07,2.53,1.07-.02,0-.03.01-.05.01-.03.13-.5.64-.59.75-.15.44-.63,1-.93,1.34-.26.29-.89.18-1.23.32-.45.19-1.83.25-1.91.68-.11.55-.2,1.28-.2,1.84,0,.8-.3.94.74,1.14.1.38-.83,1.56-1.15,1.76l-1.95,3.25c-.35.59-1.09,3.84.04,3.84l-2.17.48c-1.29.29-.96.02-2.02-.3-.57-.18-.9.39-1.39.3-.84-.15-1.04.3-1.56.3-.21,0-1.5-1.27-2.06-1.42-1.52-.4-2.87.34-4.47-.23-.91-.32-.89.41-1.2.95,0,1.24-.18,2.35.85,3.12.91.69,1.21.39,2.19.39,0,1.37.68,1.55,1.77,2.06,1.21.57,1.39-.04,2.41-.04.15.62.14,1.81-.06,2.39-1.07,0-2.33-.14-3.23.54-.92.7-1.8,1.73-1.91,2.89-.07,1.25-1.62,2.94-2.09,4.26-.36,1.02-.33,2.64-.08,3.66-.69,0-1.68-.23-2.17.36-.47.58-.68,1.67-.53,2.38.11.53-.27.88-.27,1.35l.94,1.52c-.18.72-.07,1.61-.14,2.36-1.34.98-2.71.16-2.71,2.5h-.01c-.68.19-2.42-.55-3.24-.63-.91-.1-3.49.48-3.95-.42-.55-1.09-1.71-1-2.72-.86-1.48.21-.56-.85-1.23-1.46-.49-.45-.2-.87-.59-1.43-.47-.68-.27-1.63-.45-2.38l-2.57.42c-.88.15-2.15-.02-3.01-.24-.3-.08-.2-1.16-.32-1.46-.28-.74-1.61-1.32-1.73-1.78-.04-.16.63-1.02.69-1.39-.51-1.68-2.27-.41-1.17-2.62.67-1.33-1.37-1.03-1.53-2.09-.12-.85-.45-1.84-.45-2.68,0-.5.21-.97.21-1.43,0-.65-.29-1.16-.41-1.78-.12-.62.17-1.22.36-1.81.43-.84,1.58-3.92,1.58-4.82v-.02c-1.11-.27-1.53.52-2.5-.56-.74-.82-1.54-1.62-1.85-2.72-.15-.54-.25-1.42-.76-1.75-.2-.13-1.84-.63-1.94-.5-1.33,1.79-1.37.26-2.63.26-.57,0-.55.67-1.23.26-.72-.45-1.62-.61-2.39-.99-.57-.07-.27-.82-.42-1.09-.24-.4-.95-.4-1.12-.86,1.35-2.24,3.17-4.64,2.48-7.4h-.01c-.43-.01-6.5,1.79-5.39-.19.43-.78-.52-1.02-1.06-.62-.82.63-1.29,1.69-2.12.89-.22-.03-1.47-1.25-1.7-1.51-.77-.86-.12-1.35-.23-2.24-.03-.31-.92-.55-1.17-.78-.35-.33.02-1.14.02-1.6-.64-.1-1.17-1.06-1.62-1.47-.44-.4.55-1.04.55-1.6-.03,0-.03,0-.03-.03-.9,0-1.77.72-2.83.68-1.27-.05-2.18-1.1-3.12-1.79-.06-.49-2.28-2.6-1.23-3.28,1.84-1.19.12-1.19.61-2.38l.95-2.32c.02-.05.12-.37.06-.39v-.03c-.7-.17-1.39-.18-2.09-.5-.52-.23-2.36-.5-2.53-.86-.2-.42-.29-1.05-.5-1.54-1.64-.93-.94-.76.33-1.13.23-.07,2.24-.75,1.48-1.12-.53-.26-1-.29-.41-.87.5-.5.98-1.11,1.21-1.79.15-.44.49-.25.79-.51.76-.68,1.69-3.23,2.5-3.48.16-.05.65-.04.74-.12.33-.33.55-1.65.72-2.14.29-.78-.25-.98-.91-1.49-.86-.71-1.91-2.07-2.92-2.45-.9-.34-2.94-.12-3.5-.57,0-1.01-.22-1.82.49-2.7,0-1.03-1.67-1.92-1.67-3.13.3-.38.12-1.06.24-1.48.11-.38.29-.65.52-.96.5-.68-.85-2,.08-2.61.64-.41-.8-.67.01-1.26.31-.23,1.95-.78,1.79-1.12l-.73-1.54c-.25-.53-.79-1.33-.86-1.88.72-.3.68-.78,1.65-.9.84-.11.78-.49.95-1.16.12-.49-.39-.55-.73-.72-.52-.27-1.09-.7-1.62-.89-.99-.35-1.07-.31-.8-1.24.25-.87.8-1.88.8-2.77-1.3-.32-1.62-.72-2.67-1.44-1.42-.98-1.16.91-2.17-.09-.63-.28-.94-.85-1.51-1.12-.25-.12.22-.79.29-1.1.06-.28.52-.44.72-.68.29-.34.41-.95.73-1.23.21-.19.6-.04.67-.3l.5-1.87s-.03-.01-.03-.03c-.44,0-1.28-.39-1.65-.65-.52-.36-.41-1.1-.85-1.31-.31-.15-1.14-.39-1.08-.87-.37-.51-1.08-1.55-.16-1.9.54-.21-.21-1.44-.44-1.79-.14-.22-.31-1.14-.53-1.17-.16-.23-1.89-.54-2.27-.74-1.07-.53-1.39.86-1.99.74-.26-.51-.87-1.88-.68-2.45.57-1.7,0-.97-.93-2.03.33-.78,1.57-2.78,1.26-3.72-.74,0-1.62,1.25-2.11.11-.34-.82.5-1.58-.21-2.29-.57-.56-.65-1.11.14-1.44,1.01-.42,1.71-1.28,2.64-1.79.49-.27.13-.59-.09-.93-.12-.18-.62-1.09-.71-1.01-.52.45-1.03.87-1.6,1.24-.96.29-1.85,0-2.79,0-.73,0-1.62.18-1.83,1.02h-.06c-.21-1.07-.99-2.34-1.67-3.19-.28-.35.42-.24.64-.35.74-.19,1.23-.37,1-1.12-.15-.48.16-.87.61-.99,1.18-.33.9-1.74.9-2.68-2.11-.3-.07-1.27-.76-2.02-.83-.9-1.92-1.14-2.65-2.2-.73-.72-.41-1.85-.53-2.79-.14-1.06-.9-1.68-1.62-2.47-.75-.82.19-.8.45-1.43.11-.28-.44-.52-.32-.69.17-.26.78-.36,1.05-.72.72-.98,1.21-2.59,2.15-.96.99,1.72,1.86,3.13,3.95,1.65.16-.11.86-.81.83-.84,1.23-.41,2.02-.44,2.32-1.87.22-1.06.3-2.01.3-3.12,0-.24-.25-1.69.2-1.51.54.22.89.81,1.2,1.28.31.48.85,1.97,1.27,2.22.22.12.79-.1.77-.11.42-.01,1.25-.42,1.71-.51.64-.14,2.01-.47,2.48.18.41.56.71.52,1.29.29.35-.14.71-.39,1.09-.42.39-.03.2-.95.8-1.22.71-.31,1.61-.51,2.41-.77.27-.09,1.06-.49,1.35-.63.62-.31,2.11-.37,2.3-.87l.35,1.05c0,.36-.2.66.24.83l1.14,1.72c.32-.31.63-.57.97-.79,3.11-2.01,9.4-.29,12,1.67,1.3.99,1.31,1.95.76,2.8l1.94,1.3c.4.67,3.08,2.06,3.54,1.05.57-1.24,3.16-.01,4.1-.01,0-1.09.71-1.63.86-2.74.35-2.53,1.87.49,3.36.45.82-.03,1.44-.3,2.33-.21.94.09.95-.86,1.56-1.52,1.07-.53.01-.76-.14-1.58-.07-.37,1.64-.64,1.97-.71.9-.18,3.6-1.39,4.29-.47l1.8,2.4c.62.82.72.63,1.65.63.37,0,2.22.97,2.42,1.28.27.41-.44,2.67-.69,3.02-.14.47-.64,1.52-1.05,1.82-1.54,1.15.64.69.35,1.94-.04.19.3,1.34.38,1.66,1.42.24.49,1.28.67,2,.96,0,2.15-.63,3.12-.87.36-.09.33-1.89.33-2.27,0-1.07,1.28-2.57,2.2-3.15.71-.45,1.92-1.82,2.83-1.82h.01c0,.92-.18,1.23.44,1.97.49.59,1.5,1.08,1.83,1.75.27.53,2.32,2.83,2.7,2.53,1.51-1.21,1.16-.07,2.71.03.98.06,1.18.01,2.12.3,1.12.34,2.4.04,3.53.24.65.12,2.65,1.78,2.72,2.39.28.64.9,1.09,1.38,1.6.23.25,1.09,1.35,1.17,1.64.53.11.63-.1,1.21-.27,1.18-.36,2.53.04,3.57-.45.55-.26,1.04-.61,1.58-.87.57-.28,1.14-.25,1.74-.36,1.17-.17,1.8-.01,2.5-1.07.15-.23,1.01-1.59,1.25-1.49,1.21.47,1.27,1.97,3.03,1.97.52,0,2.5-1.72,2.67-2.21h.01c.53.01,1.11,2.13,1.05,2.6-.12.89-1.12,1.95-.54,2.9l.31,1.27c1.2.12,2.36.35,3.62.55,3.2.51,5.71,2.27,5.71,5.78,0,.98-.21,1.7-.63,2.36l2.94,1.21c.6.46,1.85-.13,2.12.6.31.85.29,1.39-.04,2.17-.64,1.5.26,2.07.26,3.48,0,.69-.29.86-.55,1.4-.21.44.23,2.04.23,2.5"/>
        <path class="cls-1" d="m132.18,82.45c-1.02.72-2.01,1.25-2.96,1.43-.99.19-2.83.82-3.33,1.73-.69,1.27-1.19,2.53-1.71,3.84-.38.96-.64,1.91-1.31,2.59l.85,2.12c.01.61.56.68-.23.99-1.22.48.53,1.92.53,2.57,0,.44-1.22.46-1.5,1.08-.6,1.35,1.23,1.91.85,3.03-.2.6-.51.84-.49,1.52.02.66.33,1.31.33,2.07.03.27-.14,1.14.15,1.2,2.22.46,4.21-1.41,4.85,1.82.2,1.03.11,1.79,1.29,2.12.84.23,1.75-.07,2.45.1.03.11.2.2.21.32.11.01.46.59.54.71.47.68.77.32.45,1.16-.34.91,1.01.68,1.61.68.46.08.85.01,1.23.31.45.36.6,1.36.3,1.84-.21.34-.65.53-.94.78-.26.23-.55.75-.65,1.09l-.73.03c-.47.1-.95.26-1.42.14-.42-.11-.55-.38-.71-.74-.13-.28-.31-.32-.57-.48-.77.11-1.35.39-2.02.56,0,.46.85,1.16.85,1.91,0,.6.06,1.9-.23,2.38-.17.28-.79.6-1.09.53-.09-.42-1.13-1.18-1.52-1.32-.58-.21-1.11.75-1.5,1.04-.22.17-.97,1.23-1.12,1.16-.64-.32-.99-.63-1.74-.86-.41.34-2.09,1.78-2.09,2.27,0,.9.26,2.12-1.2,1.81-2.4-.52-4-.55-6.1,1.01,0,.21,1.66,1.4,1.94,1.48.21.33.93,1.27,1.23,1.49.11.55-.83.76-1.02,1.29.22,1.1-.45,1.24-.68,2.18-.19.78-.87,1.41-1.17,2.18-.08.21.12,1.48-.44,1.19-.44-.23-.84-1.15-1.47-.48-.25.26-.1.85-.17,1.2-.82,1.51-.72,1.67-2.12.77-1.81-1.16-1.89.78-2.55.6-.63-.17-1.84-.57-2.45-.26-1.02.5.38,1.86-1.1,1.76-.61-.04-1.09-.2-1.09.51,0,1.89-.79,3.71-.79,5.54-1.07,0-2.14-1.26-2.97-1.26-.08.33-.04.6-.04.96.04.49-.02,2.26.33,2.47,1.06.62.91.28.91,1.39.8.2,1.78-.36,2.56-.16,1.1.28.46,1.41.37,2.2-.11.91.33.72.91,1.17.93.73.76.78,1.15,1.88.09.26,2.24,1.07,2.53,1.07-.02,0-.03.01-.05.01-.03.13-.5.64-.59.75-.15.44-.63,1-.93,1.34-.26.29-.89.18-1.23.32-.45.19-1.83.25-1.91.68-.11.55-.2,1.28-.2,1.84,0,.8-.3.94.74,1.14.1.38-.83,1.56-1.15,1.76l-1.95,3.25c-.35.59-1.09,3.84.04,3.84l-2.17.48c-1.29.29-.96.02-2.02-.3-.57-.18-.9.39-1.39.3-.84-.15-1.04.3-1.56.3-.21,0-1.5-1.27-2.06-1.42-1.52-.4-2.87.34-4.47-.23-.91-.32-.89.41-1.2.95,0,1.24-.18,2.35.85,3.12.91.69,1.21.39,2.19.39,0,1.37.68,1.55,1.77,2.06,1.21.57,1.39-.04,2.41-.04.15.62.14,1.81-.06,2.39-1.07,0-2.33-.14-3.23.54-.92.7-1.8,1.73-1.91,2.89-.07,1.25-1.62,2.94-2.09,4.26-.36,1.02-.33,2.64-.08,3.66-.69,0-1.68-.23-2.17.36-.47.58-.68,1.67-.53,2.38.11.53-.27.88-.27,1.35l.94,1.52c-.18.72-.07,1.61-.14,2.36-1.34.98-2.71.16-2.71,2.5h-.01c-.68.19-2.42-.55-3.24-.63-.91-.1-3.49.48-3.95-.42-.55-1.09-1.71-1-2.72-.86-1.48.21-.56-.85-1.23-1.46-.49-.45-.2-.87-.59-1.43-.47-.68-.27-1.63-.45-2.38l-2.57.42c-.88.15-2.15-.02-3.01-.24-.3-.08-.2-1.16-.32-1.46-.28-.74-1.61-1.32-1.73-1.78-.04-.16.63-1.02.69-1.39-.51-1.68-2.27-.41-1.17-2.62.67-1.33-1.37-1.03-1.53-2.09-.12-.85-.45-1.84-.45-2.68,0-.5.21-.97.21-1.43,0-.65-.29-1.16-.41-1.78-.12-.62.17-1.22.36-1.81.43-.84,1.58-3.92,1.58-4.82v-.02c-1.11-.27-1.53.52-2.5-.56-.74-.82-1.54-1.62-1.85-2.72-.15-.54-.25-1.42-.76-1.75-.2-.13-1.84-.63-1.94-.5-1.33,1.79-1.37.26-2.63.26-.57,0-.55.67-1.23.26-.72-.45-1.62-.61-2.39-.99-.57-.07-.27-.82-.42-1.09-.24-.4-.95-.4-1.12-.86,1.35-2.24,3.17-4.64,2.48-7.4h-.01c-.43-.01-6.5,1.79-5.39-.19.43-.78-.52-1.02-1.06-.62-.82.63-1.29,1.69-2.12.89-.22-.03-1.47-1.25-1.7-1.51-.77-.86-.12-1.35-.23-2.24-.03-.31-.92-.55-1.17-.78-.35-.33.02-1.14.02-1.6-.64-.1-1.17-1.06-1.62-1.47-.44-.4.55-1.04.55-1.6-.03,0-.03,0-.03-.03-.9,0-1.77.72-2.83.68-1.27-.05-2.18-1.1-3.12-1.79-.06-.49-2.28-2.6-1.23-3.28,1.84-1.19.12-1.19.61-2.38l.95-2.32c.02-.05.12-.37.06-.39v-.03c-.7-.17-1.39-.18-2.09-.5-.52-.23-2.36-.5-2.53-.86-.2-.42-.29-1.05-.5-1.54-1.64-.93-.94-.76.33-1.13.23-.07,2.24-.75,1.48-1.12-.53-.26-1-.29-.41-.87.5-.5.98-1.11,1.21-1.79.15-.44.49-.25.79-.51.76-.68,1.69-3.23,2.5-3.48.16-.05.65-.04.74-.12.33-.33.55-1.65.72-2.14.29-.78-.25-.98-.91-1.49-.86-.71-1.91-2.07-2.92-2.45-.9-.34-2.94-.12-3.5-.57,0-1.01-.22-1.82.49-2.7,0-1.03-1.67-1.92-1.67-3.13.3-.38.12-1.06.24-1.48.11-.38.29-.65.52-.96.5-.68-.85-2,.08-2.61.64-.41-.8-.67.01-1.26.31-.23,1.95-.78,1.79-1.12l-.73-1.54c-.25-.53-.79-1.33-.86-1.88.72-.3.68-.78,1.65-.9.84-.11.78-.49.95-1.16.12-.49-.39-.55-.73-.72-.52-.27-1.09-.7-1.62-.89-.99-.35-1.07-.31-.8-1.24.25-.87.8-1.88.8-2.77-1.3-.32-1.62-.72-2.67-1.44-1.42-.98-1.16.91-2.17-.09-.63-.28-.94-.85-1.51-1.12-.25-.12.22-.79.29-1.1.06-.28.52-.44.72-.68.29-.34.41-.95.73-1.23.21-.19.6-.04.67-.3l.5-1.87s-.03-.01-.03-.03c-.44,0-1.28-.39-1.65-.65-.52-.36-.41-1.1-.85-1.31-.31-.15-1.14-.39-1.08-.87-.37-.51-1.08-1.55-.16-1.9.54-.21-.21-1.44-.44-1.79-.14-.22-.31-1.14-.53-1.17-.16-.23-1.89-.54-2.27-.74-1.07-.53-1.39.86-1.99.74-.26-.51-.87-1.88-.68-2.45.57-1.7,0-.97-.93-2.03.33-.78,1.57-2.78,1.26-3.72-.74,0-1.62,1.25-2.11.11-.34-.82.5-1.58-.21-2.29-.57-.56-.65-1.11.14-1.44,1.01-.42,1.71-1.28,2.64-1.79.49-.27.13-.59-.09-.93-.12-.18-.62-1.09-.71-1.01-.52.45-1.03.87-1.6,1.24-.96.29-1.85,0-2.79,0-.73,0-1.62.18-1.83,1.02h-.06c-.21-1.07-.99-2.34-1.67-3.19-.28-.35.42-.24.64-.35.74-.19,1.23-.37,1-1.12-.15-.48.16-.87.61-.99,1.18-.33.9-1.74.9-2.68-2.11-.3-.07-1.27-.76-2.02-.83-.9-1.92-1.14-2.65-2.2-.73-.72-.41-1.85-.53-2.79-.14-1.06-.9-1.68-1.62-2.47-.75-.82.19-.8.45-1.43.11-.28-.44-.52-.32-.69.17-.26.78-.36,1.05-.72.72-.98,1.21-2.59,2.15-.96.99,1.72,1.86,3.13,3.95,1.65.16-.11.86-.81.83-.84,1.23-.41,2.02-.44,2.32-1.87.22-1.06.3-2.01.3-3.12,0-.24-.25-1.69.2-1.51.54.22.89.81,1.2,1.28.31.48.85,1.97,1.27,2.22.22.12.79-.1.77-.11.42-.01,1.25-.42,1.71-.51.64-.14,2.01-.47,2.48.18.41.56.71.52,1.29.29.35-.14.71-.39,1.09-.42.39-.03.2-.95.8-1.22.71-.31,1.61-.51,2.41-.77.27-.09,1.06-.49,1.35-.63.62-.31,2.11-.37,2.3-.87l.35,1.05c0,.36-.2.66.24.83l1.14,1.72c.32-.31.63-.57.97-.79,3.11-2.01,9.4-.29,12,1.67,1.3.99,1.31,1.95.76,2.8l1.94,1.3c.4.67,3.08,2.06,3.54,1.05.57-1.24,3.16-.01,4.1-.01,0-1.09.71-1.63.86-2.74.35-2.53,1.87.49,3.36.45.82-.03,1.44-.3,2.33-.21.94.09.95-.86,1.56-1.52,1.07-.53.01-.76-.14-1.58-.07-.37,1.64-.64,1.97-.71.9-.18,3.6-1.39,4.29-.47l1.8,2.4c.62.82.72.63,1.65.63.37,0,2.22.97,2.42,1.28.27.41-.44,2.67-.69,3.02-.14.47-.64,1.52-1.05,1.82-1.54,1.15.64.69.35,1.94-.04.19.3,1.34.38,1.66,1.42.24.49,1.28.67,2,.96,0,2.15-.63,3.12-.87.36-.09.33-1.89.33-2.27,0-1.07,1.28-2.57,2.2-3.15.71-.45,1.92-1.82,2.83-1.82h.01c0,.92-.18,1.23.44,1.97.49.59,1.5,1.08,1.83,1.75.27.53,2.32,2.83,2.7,2.53,1.51-1.21,1.16-.07,2.71.03.98.06,1.18.01,2.12.3,1.12.34,2.4.04,3.53.24.65.12,2.65,1.78,2.72,2.39.28.64.9,1.09,1.38,1.6.23.25,1.09,1.35,1.17,1.64.53.11.63-.1,1.21-.27,1.18-.36,2.53.04,3.57-.45.55-.26,1.04-.61,1.58-.87.57-.28,1.14-.25,1.74-.36,1.17-.17,1.8-.01,2.5-1.07.15-.23,1.01-1.59,1.25-1.49,1.21.47,1.27,1.97,3.03,1.97.52,0,2.5-1.72,2.67-2.21h.01c.53.01,1.11,2.13,1.05,2.6-.12.89-1.12,1.95-.54,2.9l.31,1.27c1.2.12,2.36.35,3.62.55,3.2.51,5.71,2.27,5.71,5.78,0,.98-.21,1.7-.63,2.36l2.94,1.21c.6.46,1.85-.13,2.12.6.31.85.29,1.39-.04,2.17-.64,1.5.26,2.07.26,3.48,0,.69-.29.86-.55,1.4-.21.44.23,2.04.23,2.5Z"/>
        <path class="cls-8" d="m194.59,57.53l-2.41,1.57c-.78.34-1.18-.44-2.02-.44,0,1.03-2.72,2.47-3.11,3.73-.29.94-.09,2.18-1.2,2.7-.7.33-1.44.52-2.02,1.04-.76.68-1.57,1.53-2.45,2.03-1.03.58-1.54.64-2.38,1.58-1.14,1.1-2.19,1.63-3.83,1.63-1.51,0-2.77-.71-4.11-.81-1.54-.12-3.13.69-4.65-.03-1.66-.79-1.96-2.64-3.33-3.31-.97-.25-3.72-.91-4.15.18-1.01,2.52-1.39.29-2.29,1.08-.47.41-.74,1.57-1.2,2.1-.76.88-1.13-.2-2.19-.01-.94.17-2.53-1.06-3.63-1.29-.7-.36-1.54-.48-2.1.26-.43.57-.42,1.46-.42,2.15l.15.77c-.65.04-1.3.15-1.85.34-1.76.58-3.27,1.59-4.71,2.52-1.9,1.23-3.85,2.57-5.38,4.23-.78.85-2.2,2.14-3.46,3.05,0-.46-.44-2.05-.23-2.49.26-.54.55-.7.55-1.39,0-1.4-.9-1.97-.26-3.46.33-.77.36-1.31.04-2.16-.27-.73-1.53-.14-2.12-.6l-2.96-1.21c.42-.66.63-1.37.63-2.35,0-3.5-2.52-5.25-5.73-5.76-1.27-.2-2.43-.42-3.63-.55l-.32-1.27c-.57-.95.43-2.01.55-2.9.06-.47-.52-2.58-1.05-2.58h-.01c-.16.48-2.16,2.19-2.67,2.19-1.77,0-1.83-1.5-3.04-1.97-.25-.1-1.1,1.25-1.26,1.48-.7,1.05-1.33.89-2.51,1.07-.6.11-1.18.08-1.75.36-.54.26-1.03.61-1.58.87-1.04.49-2.4.09-3.58.45-.59.18-.69.38-1.22.27-.07-.29-.93-1.39-1.17-1.63-.49-.51-1.11-.95-1.38-1.59-.08-.61-2.08-2.27-2.74-2.38-1.13-.2-2.41.1-3.54-.24-.94-.28-1.14-.23-2.13-.3-1.56-.1-1.21-1.23-2.72-.03-.38.3-2.44-1.99-2.71-2.52-.34-.67-1.34-1.16-1.84-1.74-.63-.74-.44-1.05-.44-1.95h-.01c-.91-.01-2.12,1.36-2.84,1.8-.91.57-2.2,2.07-2.2,3.14,0,.38.03,2.18-.33,2.26-.98.24-2.17.87-3.13.87-.18-.72.76-1.76-.67-2-.08-.32-.42-1.46-.38-1.65.29-1.25-1.89-.79-.35-1.93.4-.3.91-1.35,1.05-1.81.26-.36.98-2.6.7-3.02-.21-.31-2.06-1.27-2.43-1.27-.94,0-1.03.19-1.66-.63l-1.81-2.38c-.69-.91-3.4.28-4.3.46-.33.07-2.04.33-1.97.7.15.82,1.21,1.05.14,1.58-.61.65-.62,1.61-1.56,1.51-.9-.08-1.52.19-2.34.21-1.5.04-3.02-2.97-3.37-.45-.15,1.1-.87,1.64-.87,2.73-.94,0-3.54-1.22-4.12.01-.47,1-3.15-.38-3.55-1.05l-1.94-1.29c.56-.84.55-1.8-.76-2.78-2.6-1.96-8.92-3.67-12.03-1.67-.34.22-.65.48-.97.79l-1.14-1.72c.2.08.44-.04.61-.15.36-.22.67-.63.94-.94.26-.3.65-.44.9-.74.19-.23,0-.93-.01-1.23-.02-.52-.61-1.08-.99-1.42.16-.24.37-.44.63-.56,1.21-.56.4-2.19,1.31-2.81.58-.39.95-1.04,1.59-1.39.61-.33.88-.07,1-.89.15-1.03.52-1.49,1.37-2.12.3-.22.71-.56.83-.91.13-.38.08-.78-.09-1.08-.57-1-.55-1.61-.27-2.64.22-.79,1.16-1.03,1.5-1.63.26-.45-.26-.5-.34-.99-.12-.76.54-2.07.96-2.67.73-1.04-.21-1.44-.26-2.46-.02-.44.65-.97.65-1.41,0-1.35-.07-1.8.53-3.07.71-1.5.1-2.96.77-4.32.35-.7,1.24-.87,1.76-1.38.35-.34.37-.67.63-1.03.3-.42.57-.45.91-.72.32-.26,1.41-.8,1.44-1.23.02-.24-.05-.45-.15-.61l1.06-1.28c.11-.18.19-.33.41-.33.52,1.57.34,1.51,2.19,1.77.96.14,1.84,1.25,2.79,1.56,0,.54-.84.68-.86,1.39-.02.39-.24,1.06-.17,1.35.33,1.23-.44.59-1.31.98-.86.38-.8.74-1.87.74,0,.56-.28,1,.41,1.23.55.18,1.72.46,1.44,1.29-.09,1.09.75.51,1.52.69.23.05,1.29,2.19,1.62,2.57.33.37.17.94.7,1.29.28.19.82.8.82,1.1.72,0,2.83-1.57,3.54-2.01,1.04-.65,1.95-.73,2.81.41.76.94.57-.34.84-.54.2-.15,1.38-.69,1.38-.25,0,1.72,1.5.63,1.78,1.66.23.86-.01,1.18,1.02.44,1.08-.79,2.53-1.54,2.81-.15l.56,2.76c.35-.04.82-.8,1.46-.93.46-.09,1.41-1,1.62-.94.46,1.83,1.21.09,2.46-.06.21,0,.98-.39,1.04-.34,0,.19,1.21,1.99,1.41,2.43.38.84.87.27,1.54.01l4.25-1.59c.5-.19,2.35-1.08,2.75-.98.49,1.95,2.54,1.32,4.19.87.62-.3,1.58-1.28,1.99-1.84,1.22-1.71,1.14-1.18,2.57-.23.87.58,1.86.91,2.93.91,1.55,0,2.35-2.24,3.65-2.7.66-.23,1.27,0,1.9-.19.77-.23,1.91-1.2,2.45-1.77.81-1.33,2.43-1.54,3.81-1.86.46-.11,1.24-.37,1.32-.89.04-.26.16-.5.33-.72.04-.05.45-.47.5-.27l.41.9s.05.03.06.04c.53,0,1.17-.92,1.63-.81.08.57.29,1.05.17,1.67-.26,1.36-.49,1.14.36,2.36.96,1.35,1.27.57,2.71.57.56.94,1.2,1.51,2.29.44.99-.84.59-.98,2.2-.59.13.92.06,2.11.58,2.88.56.83.39-1.76,1.34-1.76.23.93,3.55,1.42,2.93,2.22-.93,1.2-.44,1.8.12,3.05.14.31,1.67-.32,2.12-.38.84-.11,1.01-.27.62-1.17-.38-.9.1-.45.65-.37.52.07,1.88.48,2.29.42.26-.03,2.08-.69,2.25-.84-.03.02-.05.02-.04.06.42-.08.79-.77,1.03-1.06.57-.69,2.62,2.7,3.05,2.83,0,.31-1.24,1.33-1.49,1.66-.19.26-1.31,1.33-1.31,1.48.64.16,1.19.9,1.84,1.16,1.09.43,2.32.12,3.42-.24.7-.27,1.23-.2,1.93-.59.77-.42,1.64-.89,2.53-.89.76,0,1.8.17,2.51.03l.04-.05s0-.06.01-.09c0-.83.11-1.62.35-2.41.27-.9,1.52-1.34,1.85-2.21.34-1.27.93-2.42,2.6-2.65,1.96-.27,3.38,3.3,4.72,4.36.73.58,2.44,2.39,2.8,3.23.22.51-.63,2.21.28,2.04,1.58-.31,1.84-3.02,3.72-2.68,1.18.22,1.41,3.15,3.07,2.43,1.2-.03,1.91-.86,3.2-.21.71.35,1.57.69,2.37.75,1.7.11,2.58.11,1.98,1.74-1.07,2.9,1.91.62,2.98.29.15-.04.98.16,1.07.28.8,1.15,2.24.46,2.24,2.28.26.86,2.46,1.11,3.31,1.48,1,.44,1.87.51.87,1.66-.77.88-2.27,1.86,0,2.76.78.31,1.01.09,1.78.31.51.14,1.57.59,2,.85.44.13.8.15,1.23.23.39.07,1.15-2.09,1.16-2.46l.07-2.22c.01-.44-.18-.86.29-.86.39,0,.32.93.58,1.2.78.82,1.13-.83,1.5-1.26,1.64-1.89,1.81,1.46,1.81,2.23s.16,1.49.16,2.28c0,1.13.42,1.05,1.2,1.67.17.19-.36.65-.19.85.11.12.12.34.3.41.48.18,1.35-.48,1.66.14,0,.25.04.45.03.71-.01.42-.2.84.15,1.23.37.41.67.9,1.08,1.25.22.18.45.11.68.01-.42,1.24-1.6,3.41-2.47,4.41-.2.24-.67.38-.52.68.1.2.58,1.2.73,1.16.56-.18,1.11-.69,1.61-.86,0,.64.1,1.06.29,1.66.08.08.59.52.61.61.2.05-.35.31-.39.33l-.94.39c-.81.34-1.2.79-1.73,1.48-.95,1.24-.8,3.17-2.52,3.51-.89.17-1.29.92-2.33.9-.39,0-1.21-.31-1.5-.24-.19.75.69,1.31.91,1.97.46,0,.84.31,1.29.19l2.29.93Z"/>
        <path class="cls-1" d="m193.52,57.53l-.7,1.31c-.78.34-2.02-.31-2.86-.31,0,1.03-1.88,2.34-2.28,3.61-.29.94-.09,2.18-1.2,2.7-.7.33-1.44.52-2.02,1.04-.76.68-1.57,1.53-2.45,2.03-1.03.58-1.54.64-2.38,1.58-1.14,1.1-2.19,1.63-3.83,1.63-1.51,0-2.84-.38-4.18-.49-1.54-.12-4.02.84-5.54.12-1.66-.79-1.62-2.34-3-3.02-.97-.25-3.1-1.67-3.53-.59-1.01,2.52-1.39.29-2.29,1.08-.47.41-.74,1.57-1.2,2.1-.76.88-1.13-.2-2.19-.01-.94.17-3.18-.8-4.27-1.03-.7-.36-.9-.74-1.45,0-.43.57-.72,1.11-.72,1.79l.44,1.13c-.65.04-1.3.15-1.85.34-1.76.58-3.27,1.59-4.71,2.52-1.9,1.23-3.85,2.57-5.38,4.23-.78.85-2.2,2.14-3.46,3.05,0-.46-.44-2.05-.23-2.49.26-.54.55-.7.55-1.39,0-1.4-.9-1.97-.26-3.46.33-.77.36-1.31.04-2.16-.27-.73-1.53-.14-2.12-.6l-2.96-1.21c.42-.66.63-1.37.63-2.35,0-3.5-2.52-5.25-5.73-5.76-1.27-.2-2.43-.42-3.63-.55l-.32-1.27c-.57-.95.43-2.01.55-2.9.06-.47-.52-2.58-1.05-2.58h-.01c-.16.48-2.16,2.19-2.67,2.19-1.77,0-1.83-1.5-3.04-1.97-.25-.1-1.1,1.25-1.26,1.48-.7,1.05-1.33.89-2.51,1.07-.6.11-1.18.08-1.75.36-.54.26-1.03.61-1.58.87-1.04.49-2.4.09-3.58.45-.59.18-.69.38-1.22.27-.07-.29-.93-1.39-1.17-1.63-.49-.51-1.11-.95-1.38-1.59-.08-.61-2.08-2.27-2.74-2.38-1.13-.2-2.41.1-3.54-.24-.94-.28-1.14-.23-2.13-.3-1.56-.1-1.21-1.23-2.72-.03-.38.3-2.44-1.99-2.71-2.52-.34-.67-1.34-1.16-1.84-1.74-.63-.74-.44-1.05-.44-1.95h-.01c-.91-.01-2.12,1.36-2.84,1.8-.91.57-2.2,2.07-2.2,3.14,0,.38.03,2.18-.33,2.26-.98.24-2.17.87-3.13.87-.18-.72.76-1.76-.67-2-.08-.32-.42-1.46-.38-1.65.29-1.25-1.89-.79-.35-1.93.4-.3.91-1.35,1.05-1.81.26-.36.98-2.6.7-3.02-.21-.31-2.06-1.27-2.43-1.27-.94,0-1.03.19-1.66-.63l-1.81-2.38c-.69-.91-3.4.28-4.3.46-.33.07-2.04.33-1.97.7.15.82,1.21,1.05.14,1.58-.61.65-.62,1.61-1.56,1.51-.9-.08-1.52.19-2.34.21-1.5.04-3.02-2.97-3.37-.45-.15,1.1-.87,1.64-.87,2.73-.94,0-3.54-1.22-4.12.01-.47,1-3.15-.38-3.55-1.05l-1.94-1.29c.56-.84.55-1.8-.76-2.78-2.6-1.96-8.92-3.67-12.03-1.67-.34.22-.65.48-.97.79l-1.14-1.72c.2.08.44-.04.61-.15.36-.22.67-.63.94-.94.26-.3.65-.44.9-.74.19-.23,0-.93-.01-1.23-.02-.52-.61-1.08-.99-1.42.16-.24.37-.44.63-.56,1.21-.56.4-2.19,1.31-2.81.58-.39.95-1.04,1.59-1.39.61-.33.88-.07,1-.89.15-1.03.52-1.49,1.37-2.12.3-.22.71-.56.83-.91.13-.38.08-.78-.09-1.08-.57-1-.55-1.61-.27-2.64.22-.79,1.16-1.03,1.5-1.63.26-.45-.26-.5-.34-.99-.12-.76.54-2.07.96-2.67.73-1.04-.21-1.44-.26-2.46-.02-.44.65-.97.65-1.41,0-1.35-.07-1.8.53-3.07.71-1.5.1-2.96.77-4.32.35-.7,1.24-.87,1.76-1.38.35-.34.37-.67.63-1.03.3-.42.57-.45.91-.72.32-.26,1.41-.8,1.44-1.23.02-.24-.05-.45-.15-.61l1.06-1.28c.11-.18.19-.33.41-.33.52,1.57.34,1.51,2.19,1.77.96.14,1.84,1.25,2.79,1.56,0,.54-.84.68-.86,1.39-.02.39-.24,1.06-.17,1.35.33,1.23-.44.59-1.31.98-.86.38-.8.74-1.87.74,0,.56-.28,1,.41,1.23.55.18,1.72.46,1.44,1.29-.09,1.09.75.51,1.52.69.23.05,1.29,2.19,1.62,2.57.33.37.17.94.7,1.29.28.19.82.8.82,1.1.72,0,2.83-1.57,3.54-2.01,1.04-.65,1.95-.73,2.81.41.76.94.57-.34.84-.54.2-.15,1.38-.69,1.38-.25,0,1.72,1.5.63,1.78,1.66.23.86-.01,1.18,1.02.44,1.08-.79,2.53-1.54,2.81-.15l.56,2.76c.35-.04.82-.8,1.46-.93.46-.09,1.41-1,1.62-.94.46,1.83,1.21.09,2.46-.06.21,0,.98-.39,1.04-.34,0,.19,1.21,1.99,1.41,2.43.38.84.87.27,1.54.01l4.25-1.59c.5-.19,2.35-1.08,2.75-.98.49,1.95,2.54,1.32,4.19.87.62-.3,1.58-1.28,1.99-1.84,1.22-1.71,1.14-1.18,2.57-.23.87.58,1.86.91,2.93.91,1.55,0,2.35-2.24,3.65-2.7.66-.23,1.27,0,1.9-.19.77-.23,1.91-1.2,2.45-1.77.81-1.33,2.43-1.54,3.81-1.86.46-.11,1.24-.37,1.32-.89.04-.26.16-.5.33-.72.04-.05.45-.47.5-.27l.41.9s.05.03.06.04c.53,0,1.17-.92,1.63-.81.08.57.29,1.05.17,1.67-.26,1.36-.49,1.14.36,2.36.96,1.35,1.27.57,2.71.57.56.94,1.2,1.51,2.29.44.99-.84.59-.98,2.2-.59.13.92.06,2.11.58,2.88.56.83.39-1.76,1.34-1.76.23.93,3.55,1.42,2.93,2.22-.93,1.2-.44,1.8.12,3.05.14.31,1.67-.32,2.12-.38.84-.11,1.01-.27.62-1.17-.38-.9.1-.45.65-.37.52.07,1.88.48,2.29.42.26-.03,2.08-.69,2.25-.84-.03.02-.05.02-.04.06.42-.08.79-.77,1.03-1.06.57-.69,2.62,2.7,3.05,2.83,0,.31-1.24,1.33-1.49,1.66-.19.26-1.31,1.33-1.31,1.48.64.16,1.19.9,1.84,1.16,1.09.43,2.32.12,3.42-.24.7-.27,1.23-.2,1.93-.59.77-.42,1.64-.89,2.53-.89.76,0,1.8.17,2.51.03l.04-.05s0-.06.01-.09c0-.83.11-1.62.35-2.41.27-.9,1.52-1.34,1.85-2.21.34-1.27.29-2.15,1.96-2.38,1.96-.27,3.38,3.3,4.72,4.36.73.58,2.44,2.39,2.8,3.23.22.51,0,1.95.93,1.77,1.58-.31,1.2-2.75,3.08-2.42,1.18.22,2.06,2.88,3.71,2.16,1.2-.03,1.91-.86,3.2-.21.71.35,1.57.69,2.37.75,1.7.11,1.94.38,1.34,2.01-1.07,2.9,2.55.35,3.62.03.15-.04.34.42.42.54.8,1.15,2.89.19,2.89,2.01.26.86,2.46,1.11,3.31,1.48,1,.44,1.87.51.87,1.66-.77.88-2.91,2.12-.64,3.03.78.31,1.65-.18,2.42.05.51.14,1.57.59,2,.85.44.13.8.15,1.23.23.39.07.5-1.82.52-2.19l.07-2.22c.01-.44.46-1.12.93-1.12.39,0,.32.93.58,1.2.78.82,1.13-.83,1.5-1.26,1.64-1.89,1.17,1.72,1.17,2.49s.16,1.49.16,2.28c0,1.13.42,1.05,1.2,1.67.17.19.28.38.45.58.11.12.12.34.3.41.48.18,1.35-.48,1.66.14,0,.25.04.45.03.71-.01.42-.2.84.15,1.23.37.41.67.9,1.08,1.25.22.18.45.11.68.01-.42,1.24-1.6,3.41-2.47,4.41-.2.24-.67.38-.52.68.1.2.58,1.2.73,1.16.56-.18,1.11-.69,1.61-.86,0,.64.1,1.06.29,1.66.08.08.59.52.61.61.2.05-.35.31-.39.33l-.94.39c-.81.34-1.2.79-1.73,1.48-.95,1.24-.8,3.17-2.52,3.51-.89.17-1.29.92-2.33.9-.39,0-1.21-.31-1.5-.24-.19.75.51,1.84.73,2.51.46,0,1.03-.22,1.47-.34l.58,1.2Z"/>
        <path class="cls-8" d="m164.93,231.92c.12.35.19.68.26,1.02.18.86,1.23,1.91,1.75,2.64.67.92,1.17,2.26,1.13,3.41-.05,1.4-.55,2.22-.44,3.72.12,1.7.04,4.58,2.21,4.97.55.1,1.36.29,1.62.81l.97-.1c.35.27.58,1.02,1.03.91.84-.2,1.97-.67,2.71-1.13.7-.43,1.16.87,1.77,1.02,0,.4-.29.76-.21,1.22.07.4.56,1.47.99,1.52.95.12,2,0,2.97.08.7.04.94-.16,1.06.53.13.75.03,1.66.2,2.38.21.87,1.03.21,1.64.21.11.53-.3,1.25-.2,1.92.12.77-.14.94.37,1.62.11.15.72,2.07.7,2.15-.29.93.71,1.39.44,2.19-.18.5-.68.65-1.16.76,0,.32.33.44.17.91-.19.55-.93,1.25-1.28,1.77-.32.48-.99.55-.32,1.11.17.14,1.12,1,1.13,1.16.02.35-.39.67-.23,1.05.41.97.44.48,0,1.59-.41,1.03-.56,2.23-1.83,1.46-.57-.35-1.28-.52-1.89-.78-.52-.22-1.07-.76-1.57-.89-.39.52-.31,2.05-.93,2.35-.2.1-.89-.21-.96.14-.08.41.24.86.09,1.26-.22.5-.55.17-.91.37-.21.12-.59,1.82-.84,2.19-.34.5-.82.58-1.32.86-1.02.57-2.39,1.53-2.39,2.82.58,0,1.79.71,2.16.45.48-.33,1.18-1.27,1.72-1.42.27-.08.89.38,1.37.21,1.04-.37,1.51,0,2.44.2.97.2,2.79.43,3.73.12l2.01.29c.89.13,2.93-2.87,3.5-3.63h.03c.84-.01,5.15-.64,5.65-.14,0,.66.36,1.57.52,2.21.97.41,3.22.11,4.31.11l4.84-1.02c.45-.09,2.75-1.02,3-.87,1.02.63,2.19,2.83,2.88,3.85.99,1.47,2.08.03,3.13-.44,1.28-.06,2.52.26,3.77.46,1.85.29,2.6-1.66,3.88-2.79,1.4-1.24,3.08-1.51,4.72-2.24l.76-.19c.11-.49.19-.99.15-1.58-.11-1.73-1.39-2.21-2.4-3.23l2.78.15c.68.13,1.1-.38,1.71-.29.41.06.68.55,1.17.24.72-.45.46-1.14,1.6-.79.39.12,1.27.49,1.55.06.24-.36,1.59-1.1,1.77-.43.38,1.43.71.09,1.57.3.51,2.09-1.66,1.92-1.83,3.49-.1.87.18,1.24-.15,2.1-.29.75.15,1.54.44,2.19,0,1.61,2.57,1.61,3.61.87,1.23-.89,2.2-.19,3.25-1.17,1.68-1.56,3.28-2.32,4.46-4.44.53-.95,4.94-1.28,6.06-1.28l6.42-1.04-.35-3.32c.39-2.06,2.47-3.31,4.35-3.93.72-.24,1.95-.21,2.31-.98.53-1.13-.84-1.82.94-2.6.69.04,1.39-.6,2.28-.56.84.03,2.97.84,2.83-.84-.14-1.64,2.77-4.32,2.51-4.96-.57-1.39-1-.69.34-1.75.97-.78.67-1.77,1.49-2.59.83-.8,1.67-.9,2.85-.9-.14-.53-.52-.91-.52-1.55,0-.56-.13-1.05.03-1.62.2-.69.63-1.58-.21-1.93-.69-.29-1.5-.26-2.21-.47-.45-.13-.92-.12-1.36-.32-.3-.13.83-1.46,1.03-1.8.46-.77-.3-1.45-.93-1.8-.22-.24-1.22-1.21-1.22-1.46.59-.35,1.87-1.28,1.87-2.1-.41-.31-2.57.31-2.11-1.08.26-.77,1.17-1.07,1.49-1.77.48-1.03.98-2.4,1.95-3.09.2-.15,1.25-.67,1.26-.8.03-.46-.52-.69-.76-1.05,0-.25-.28-.49-.38-.76-.17-.48.28-1.08.42-1.51.29-.85.13-1.4.76-2.19.48-.59.72-1.33,1.19-1.95l.72-.72c.57.37,1.23.91,1.85.93.89.03,1.58-.52,2.47-.46.48.04.94.2,1.4.31l3.15,1.95,2.23-3.73c.49-.77,1.15-.27,1.9-.56.6-.24,1.01-.92,1.55-1.16.34-.15.6.93.71,1.1.21.33,1.96-.71,2.62-.82.4-.07,1.54.21,1.77,0,1-.93.12-1.95,2.04-1.39.8.24.93,1.39,1.11,2.1.78,0,2.02-1.11,2.44.52.23.88.13.99.93.61l2.65-1.28c1.44-.16,3.37-.02,4.75.49.3.11.68.55,1.01.44l1.32-.44c.86-.29-.31-.91.8-1.31.69-.25.07-1.07.63-1.07.42,0,.92.14,1.32,0,.75-.25.81-.69,1.77-.81,1.27-.16.79-.14.79.88.35.09,1.08-.71,1.46-.53.47.21.24.91.93,1.05,1.05.51.69-.63,1.68-.52,1.45.16,2.61.72,4.14.72.77,0,2.31.3,2.36-.9.01-.34.91-.9,1.1-.65.38.49-.09,1.34.53,1.8,1.27.93.81-1.46.61-1.96,0-.93.27-2.54.71-3.37.45-.86,1.1.68,1.51-.76.19-.65.6-.94,1.25-.6.78.41,1.73.76,2.39,1.4.61.59,2.42,1.21,3.25.93,0-.85.08-1.86.38-2.65.32-.84.79-1.98.89-2.87.03-.29-.07-.56-.03-.85-.35-.35-1.87.06-2.37.06-1.16,0-.19-.77.08-1.24,1.1-1.9-3.18-.23-2.63-2.01.13-.41.48-2.22.72-2.42.48-.42.88-.39,1.14-1.08.25-.66.2-1.38.2-2.07,0-.82-.74-1.41-.64-2.1,0-.56-.78-.72-1.02-1.14-.26-.45.35-1.21.47-1.63.34-1.18-3.46-2.13-1.95-3.2,1.16-.82,8.03-3.28,8.05-4.19-.03-.36-.59-1.21-.81-1.54-.28-.43-.29-1.12-.42-1.62-.41-1.47-1.2-1.94-1.89-3.17-.22-.38-1.82-1.42-1.75-1.72.9-.22,1.49-1.22,2.6-1.11.93.09,2.05,1.1,2.89,1.1,1.55.31,3.79.06,4.9-1.19.8-.9,1.98-2.4,3.03-2.93.87-.44.47-1.1-.2-1.43-1.16-.59-.93-1.31-1.09-2.47-.12-.83-.84-.89-.94-1.48-1.34-1.72.77-2.62,2.08-3.31,1.36-.71,1.35-2.75,2.62-2.71.93.03,2.41.28,3.28.06,0-1.08-2.3-3.36-2.08-4,1.72,0,4.58-.46,6.03-1.34.24-.24.46-.94.73-1.07.32-.15.96-.1,1.32-.09l2.21.06c0-.51-1.45-2.07-1.87-2.41-.91-.74-1.87-1.56-2.94-2.1-.53-.27-2.73-.19-2.74-.47,0-.26-.16-.87.05-.93.54-.15.75-.41,1.17-.71.27-.2,1.38-1.17.46-.99-.71.14-1.34.39-2.08.47-.81-.05-1.82-.06-2.57-.39-.48-.22-1.08-.5-1.58-.63-.48-.12-1.97,2.18-2.75,2.51-.8.34-1.55.13-2.39.26-1.4.22-1.3.88-1.78-.61-.22-.66-.39-.74.29-1.14.26-.16.12-.44.12-.72.17-.5.1-.91.37-1.42.05-.1.45-.71.21-.76-.03-.11-1.42-.71-1.66-1.01-.23-.28-1.45-1.25-1.4-1.4.13-.38.5-.63.59-1.02.11-.46-.14-1.37.08-1.55.28-.25.72-.39.8-.81.09-.42.07-.67.5-.91.45-.26,1.04-.42,1.42-.79.6-.71,2.23.07,2.23-1.14,0-.82-.67-1.74-.33-2.48.27-.61.69-.27.04-.91-.57-.57-1.1-.91-1.23-1.77-.2-1.35.67-1.96.63-3.18-.01-.42-.32-1.8-.12-2.06.11-.19,0-1.66,0-2.01h-.02s-2.34.05-2.34.05c-1.2.03-1.44.96-2.33-.35-1.13-1.68-.24-3.2-1.92-4.65-.65-.56-.83,1.36-2.19.58-.7-.4-1.51.44-2.33.2-1.62-.49-1.36-3.53-.12-4.28l.8-3.21c.45.46,1.84-.49,2.54-.02.78.52.35,1.8,1.98.64.46-.33,1.02-.52,1.56-.53l-.03-.94c.3-.79-.3-2.15-.3-2.98,0-1.8-.19-1.56-1.92-.86-1.06.44-1.35.42-1.93-.37-.23-.3-.91-.15-1.25-.18-.49-.04-.66-.62-.88-.97-.03-.04-.32-.36-.22-.4l1.16-.97c.33-.28.86-1.16,1.31-1.05.01.04.2.18.25.18.29,1.02,6.41,1.69,6.68.58.29-.07.35-.74.41-.98h.03c.04-.1.85-.15.99-.18.29-.08.65-.34.94-.34.2.83.57,1.13,1.14,1.75.59.64.97-.03,1.44-.58.12-1.51-.64-2.93.25-4.27.69-1.05-.14-2.32-.43-3.47-.11-.46.09-.93-.03-1.4-.04.18-1.26.17-1.49.17-.48,0-.93.1-1.32.38-.46.33-1.71,2.08-1.58,2.61-.24-.08-.51-.56-.93-.66-.42-.1-1.05-.09-1.42-.26-1.01-.46-.2-1.26.11-1.88l.26-1.66c-.08-.05-.16-.12-.26-.21-1.07-1.03-2.27-.08-3.35-.67-.79-.44-.89-2.33-2.08-1.54-1.27.84-2.08.71-2.87.28l.15-.71c.13-.5,1.14-1.36.58-1.84-.56-.46-1.72-.05-2.21.32l-.24,1.2-1.14-.45-.75-.1.02-.9c0-.39.07-.85-.01-1.24-.11-.52.14-1.06.14-1.58s-.14-.5-.49-.81c-.42-.42-1.85-.82-1.75-1.46.11-.64.27-1.85.55-2.41.24-.48.95-.44.98-1.08.02-.49-.73-1.59-1.01-2.01-.26-.41-.12-2.53-.67-2.67-.31.42-.2,1.2-.69,1.69-.58.58-.78.78-1.52,1.24-.63.39-.63-.22-1.11-.31-.64-.12-1.03.91-1.4,1.29-1.55,1.55-1.42.85-2.83-.11-1.14-.77-1.99-2.1-1.87-3.43.07-.8.31-2.11-.18-2.82-.67-.96-1.17-1.93-1.54-3.03h-.03c-.1.39-3.74,1.99-4.26,2.19-1.35.53-3.05.75-3.3-1.24l.49-1.74c-.49-.24-1.08-.7-1.18-1.11-.76-3.07-.93-5.82-4.41-5.53l-.24-.99c-.14-.45-.01-.9-.05-1.37-.03-.52-.69-.5-1-.79-.82-.77-2.17-.27-2.67-1.39-.29-.65-.06-1.14-.79-1.57-.75-.44-1.35-.88-1.35-1.8-1.05-.17-1.13-.01-2.03-.67-.72-.53-2.15-.15-2.98-.15h-.03c-.04-.19-.05-.28-.01-.49.54-1.36-1.39-1.78-1.05-2.1l1.58-1.51,1.13-.87c.38-.29.26-1.52.26-1.98,0-.4.29-.74.29-1.12,0-1.08,1.94.37,1.7-1.44-.12-1-.16-.72-1.08-.67-.51.03-.57-1.06-.46-1.45.08-.65-.14-2.22-.59-2.71-.56-.61-1.36-1.68-2.06-2.12-.57-.36-1.13-.59-1.52-1.14-.63-.9-.55-.74.05-1.71.23-.38,1.4-2.6,1.4-2.89-.8,0-1.58-.04-2.37-.14-1.32-.44-1.61-.29-2.25-1.52-.26-.5-1.72-.46-2.28-.46-.74,0-1.42.21-2.13.21-1.05,0-1.66-.27-2.62-.47-.98-.21-1.83-.82-2.88-.94l-2.06-1.42c-.82.68-.72,1.83-1.2,2.74-.53,1.01-2.17,1.26-1.51,2.71.41.9.94,1.4,1.55,2.15.19.23.33.45.48.66l-.51.04c-.36,0-.72-.2-1.08-.22-.39-.01-.69.11-1.05.25-1.06,0-1.59-.22-2.54-.5-.79-.23-1.13.18-1.86.08-.68-.1-3.3-1.48-3.59-.75-.54,1.36-.82.25-1.77.91-.95.68-1.57,2.8-1.57,3.9-2.25.38-2.63-2.74-2.86-4.19-.19-1.2-.63-.49-1.34-.33-.51.23-1.04.96-1.58,1.09-.04.18-.6-.21-.68-.27-.17-.12-.56-.52-.75-.47-.14.72-.5,2.13-.8,2.74-.35,0-1.06-.65-1.4-.85-.6-.35-1,.26-1.57.55-1.44.72-2.63-1.8-4.2-1.8h-.01c-.37,1.53-.37,2.34-1.98,1.72-1.33-.51-2.01,1.74-3.44,2l-2.36.2c-.27.02-.18-1.11-.21-1.34-.05-.33-1.73-2.34-1.86-2.33-1.02.06-1.7.75-2.8.09-1.37-.82-1.98-2.11-3.08-3.11-.44-.4-.81.27-1.29.6-.82.55-1.61.98-2.52,1.35-1.54.63.08.64-.15,1.57-.64,0-2.63-.4-3.04-.15.3.4.76.75,1.17,1.06.47.24,1.84.67,1.39,1.28-.54.74-1.43.85-2.12,1.4-2.03,1.64-4.15,2.03-6.73,2.03-.12-.6-.3-1.52-.2-2.13-.13-.63-.31-1.29-.94-1.54-.57-.23-.61-1.43-.82-1.31-.46.25-.31.95-.49,1.39-.68,1.71-3.35,3.08-5.07,2.08-.63-.36.35-2.26.35-2.82-.78-.13-2.28-1.76-2.8-2.4-.9-1.09-2.21-1.58-3.17-2.59-1.12-1.17-1.11-.28-2.33-.63-.69-.11-1.17-.22-1.66-.73-.33-.35-.26-.83-.5-1.13-.54,0-.7,1.59-1.72,1.72-.29.41-.3,1.16-.8,1.32-.36.12-1.7-.05-1.83.05,0,.03,0,.05-.03.06,0,1.13-1.67,3.73-2.94,3.55l.03.02c-.16,0-.36.12-.56.21-.42,1.26-1.6,3.46-2.47,4.48-.2.24-.67.39-.52.68.1.2.58,1.22.73,1.17.56-.19,1.11-.7,1.62-.87,0,.65.1,1.07.29,1.69.08.08.58.53.61.63.2.05-.35.32-.39.34l-.94.39c-.81.34-1.2.8-1.74,1.51-.95,1.26-.8,3.23-2.52,3.57-.89.18-1.29.94-2.33.91-.39,0-1.22-.31-1.51-.24-.19.76.51,1.87.73,2.54.46,0,1.03-.22,1.47-.35l.58,1.22.52.14c.48.24.97.26,1.46.38.42.1.73.35,1.08.61.8.35.55.81,1.08,1.31.66.62.19.83.46,1.49.15.36.4.92.41,1.29.02.72-.26,1.16-.5,1.81-.15.4.09.39.09.72-.67,0-2.59-.59-3.12-.18.07.29.59.73.76,1.05l.75,1.37c.46.84,1.31,1.51,1.81,2.32.49,1.4,1.76,1.5,2.18,3.05.42,1.54.38,2.25,1.74,3.28.34.25-.22,1.52-.37,1.95-.18.5-.4.42-.73.72-.45.4-.68.75-1.06,1.16-.27.54.15,1.29.03,1.88-.12.63-.72.53-.21,1.29.78,1.18-1.14.87-.64,1.95.13.27.9,1.31.64,1.54-.36.32-2.2.26-2.8.46-.47.15-1,.76-1.52.99-1.73.77.32,2.09,1.05,2.57.27.18-.23,1.21-.23,1.58l.65,2.01c.82-.13,1.88-.04,2.68-.2-.31.97-.55,2.48-1.42,3.13-.84.64.5,2.11.63,2.85.11.71.51,1.63.39,2.32,0,.43.12,1.46.39,1.78.1.11.75.42.91.5.07.53-.06,1.67.27,2.06.52.6.5,1.58-.22,2.04,0,.41.09.82.09,1.25,0,.37-.04.72-.03,1.1.03.87,1.47.99.91,2.06-.21.4-.67,1.3-1.14,1.34-.5.37-1.63,2.07-1.27,2.74.49.88,1.32.98,2.16.64,3.09-1.23,1.94.66,2.6,2.45.16.45.1.42-.43.47l-1.46.14c-.59.05-1.03-.1-.72.61.14.32.77,1.36.58,1.65-.23.35-1.27,1.12-1.64,1.25-.38.59-1.13,1.25-.26,1.81.55.35.98.57.84,1.29-.25,1.21-1.97,2.16-2.66,3.15-.5.72-.56,1.58-1.11,2.24-.2.25-.68.43-.79.7-.18.44.35,1.09.33,1.55.2.45.61.59,1.02.85.15.1.54.33.47.55-.23.7-1.25.75-1.49,1.45.82.05,1.78.39,1.78,1.32,0,.53.94,2.15.41,2.36-.54.22-1.29,0-1.72.47-.52.59.07,2.54-.8,2.57-1.24.05-1.16-2.18-2.07-2.22-.68-.04-.74,1.12-1.08,1.49-.31.34-.47-.73-1.2.29-.25.38-.35.84-.63,1.21-.32.42-.79.54-1.02,1.06-.51,1.14,1.65,1.88,2.34,2.06,0,.74-1.06,1.3-1.23,1.98-.21.81.25,1.85-.05,2.57-.14.35-3.86.8-4.44.83.2.58,1.19,1.24,1.58,1.73.67.84.23,1.54.23,2.4.69.23,1.58.44,2.36.47.69.03.69,1.76.74,2.29.11,1.13-1.44,3.96-2.8,3.69-.33.45-.99.75-1.51.94-.53.2.04.48.2.93.4,1.17.23,1.77.11,2.96-.26,2.47-2.12,4.66-3.84,6.37-1,1,1.98-.28,1.98,1.04,0,1.23-1.7,1.96-1.75,3.26-.04.93-.51,2.25.42,2.7,2.55,1.23,1.65,3.7,1.65,5.96,0,1.15-1,1.56-1.42,2.44-.45.95.08,1.17.32,1.98.11.37-.09,1.05-.15,1.43-.15.87-.95.63-.29,1.58.6.87.25,1.64-.79,1.84.05.2.6.6.75.84.18.29.29.72.29,1.06-.03.58-.57,1.79-.41,2.26.14.43.63.62.9.97.63.85-.59,1.74.53,2.01.67.17,1.21.24,1.64.84.74,1.02.96,1.97,1.99,2.83.43.35,2.38,2.44,2.38,2.93-.55,0-1.1-.34-1.65-.4-1.42-.11-2.06.18-3.2,1.05-.36.27-2.24,1.7-2.57,1.4-1.89-1.74-3.24.61-4.78,1.11,0,.03,0,.04.02.05,0,.22,1.43,1.6,1.66,1.66,0,.21-1.5,1.2-1.75,1.42-.54.46-1.66.39-2.34.44-.81,0-2.82.5-2.21,1.66.7,1.33-.76.08-1.14.08-.44,0-.79.85-1.13,1.13l-.68.57c-.55.45,1.53.8,1.48,1.06-.08.4.11,1.31-.03,1.55-.14.25-.95-.47-1.23-.23-3.85,3.31,3.19,4.11-2.18,4.11-1.24,0-1.78.77-2.81,1.05l-2.34.38c.06.97.99,1.58,1.64,2.19.24.23.46.65.58.94"/>
        <path class="cls-1" d="m164.93,231.92c.12.35.19.68.26,1.02.18.86,1.23,1.91,1.75,2.64.67.92,1.17,2.26,1.13,3.41-.05,1.4-.55,2.22-.44,3.72.12,1.7.04,4.58,2.21,4.97.55.1,1.36.29,1.62.81l.97-.1c.35.27.58,1.02,1.03.91.84-.2,1.97-.67,2.71-1.13.7-.43,1.16.87,1.77,1.02,0,.4-.29.76-.21,1.22.07.4.56,1.47.99,1.52.95.12,2,0,2.97.08.7.04.94-.16,1.06.53.13.75.03,1.66.2,2.38.21.87,1.03.21,1.64.21.11.53-.3,1.25-.2,1.92.12.77-.14.94.37,1.62.11.15.72,2.07.7,2.15-.29.93.71,1.39.44,2.19-.18.5-.68.65-1.16.76,0,.32.33.44.17.91-.19.55-.93,1.25-1.28,1.77-.32.48-.99.55-.32,1.11.17.14,1.12,1,1.13,1.16.02.35-.39.67-.23,1.05.41.97.44.48,0,1.59-.41,1.03-.56,2.23-1.83,1.46-.57-.35-1.28-.52-1.89-.78-.52-.22-1.07-.76-1.57-.89-.39.52-.31,2.05-.93,2.35-.2.1-.89-.21-.96.14-.08.41.24.86.09,1.26-.22.5-.55.17-.91.37-.21.12-.59,1.82-.84,2.19-.34.5-.82.58-1.32.86-1.02.57-2.39,1.53-2.39,2.82.58,0,1.79.71,2.16.45.48-.33,1.18-1.27,1.72-1.42.27-.08.89.38,1.37.21,1.04-.37,1.51,0,2.44.2.97.2,2.79.43,3.73.12l2.01.29c.89.13,2.93-2.87,3.5-3.63h.03c.84-.01,5.15-.64,5.65-.14,0,.66.36,1.57.52,2.21.97.41,3.22.11,4.31.11l4.84-1.02c.45-.09,2.75-1.02,3-.87,1.02.63,2.19,2.83,2.88,3.85.99,1.47,2.08.03,3.13-.44,1.28-.06,2.52.26,3.77.46,1.85.29,2.6-1.66,3.88-2.79,1.4-1.24,3.08-1.51,4.72-2.24l.76-.19c.11-.49.19-.99.15-1.58-.11-1.73-1.39-2.21-2.4-3.23l2.78.15c.68.13,1.1-.38,1.71-.29.41.06.68.55,1.17.24.72-.45.46-1.14,1.6-.79.39.12,1.27.49,1.55.06.24-.36,1.59-1.1,1.77-.43.38,1.43.71.09,1.57.3.51,2.09-1.66,1.92-1.83,3.49-.1.87.18,1.24-.15,2.1-.29.75.15,1.54.44,2.19,0,1.61,2.57,1.61,3.61.87,1.23-.89,2.2-.19,3.25-1.17,1.68-1.56,3.28-2.32,4.46-4.44.53-.95,4.94-1.28,6.06-1.28l6.42-1.04-.35-3.32c.39-2.06,2.47-3.31,4.35-3.93.72-.24,1.95-.21,2.31-.98.53-1.13-.84-1.82.94-2.6.69.04,1.39-.6,2.28-.56.84.03,2.97.84,2.83-.84-.14-1.64,2.77-4.32,2.51-4.96-.57-1.39-1-.69.34-1.75.97-.78.67-1.77,1.49-2.59.83-.8,1.67-.9,2.85-.9-.14-.53-.52-.91-.52-1.55,0-.56-.13-1.05.03-1.62.2-.69.63-1.58-.21-1.93-.69-.29-1.5-.26-2.21-.47-.45-.13-.92-.12-1.36-.32-.3-.13.83-1.46,1.03-1.8.46-.77-.3-1.45-.93-1.8-.22-.24-1.22-1.21-1.22-1.46.59-.35,1.87-1.28,1.87-2.1-.41-.31-2.57.31-2.11-1.08.26-.77,1.17-1.07,1.49-1.77.48-1.03.98-2.4,1.95-3.09.2-.15,1.25-.67,1.26-.8.03-.46-.52-.69-.76-1.05,0-.25-.28-.49-.38-.76-.17-.48.28-1.08.42-1.51.29-.85.13-1.4.76-2.19.48-.59.72-1.33,1.19-1.95l.72-.72c.57.37,1.23.91,1.85.93.89.03,1.58-.52,2.47-.46.48.04.94.2,1.4.31l3.15,1.95,2.23-3.73c.49-.77,1.15-.27,1.9-.56.6-.24,1.01-.92,1.55-1.16.34-.15.6.93.71,1.1.21.33,1.96-.71,2.62-.82.4-.07,1.54.21,1.77,0,1-.93.12-1.95,2.04-1.39.8.24.93,1.39,1.11,2.1.78,0,2.02-1.11,2.44.52.23.88.13.99.93.61l2.65-1.28c1.44-.16,3.37-.02,4.75.49.3.11.68.55,1.01.44l1.32-.44c.86-.29-.31-.91.8-1.31.69-.25.07-1.07.63-1.07.42,0,.92.14,1.32,0,.75-.25.81-.69,1.77-.81,1.27-.16.79-.14.79.88.35.09,1.08-.71,1.46-.53.47.21.24.91.93,1.05,1.05.51.69-.63,1.68-.52,1.45.16,2.61.72,4.14.72.77,0,2.31.3,2.36-.9.01-.34.91-.9,1.1-.65.38.49-.09,1.34.53,1.8,1.27.93.81-1.46.61-1.96,0-.93.27-2.54.71-3.37.45-.86,1.1.68,1.51-.76.19-.65.6-.94,1.25-.6.78.41,1.73.76,2.39,1.4.61.59,2.42,1.21,3.25.93,0-.85.08-1.86.38-2.65.32-.84.79-1.98.89-2.87.03-.29-.07-.56-.03-.85-.35-.35-1.87.06-2.37.06-1.16,0-.19-.77.08-1.24,1.1-1.9-3.18-.23-2.63-2.01.13-.41.48-2.22.72-2.42.48-.42.88-.39,1.14-1.08.25-.66.2-1.38.2-2.07,0-.82-.74-1.41-.64-2.1,0-.56-.78-.72-1.02-1.14-.26-.45.35-1.21.47-1.63.34-1.18-3.46-2.13-1.95-3.2,1.16-.82,8.03-3.28,8.05-4.19-.03-.36-.59-1.21-.81-1.54-.28-.43-.29-1.12-.42-1.62-.41-1.47-1.2-1.94-1.89-3.17-.22-.38-1.82-1.42-1.75-1.72.9-.22,1.49-1.22,2.6-1.11.93.09,2.05,1.1,2.89,1.1,1.55.31,3.79.06,4.9-1.19.8-.9,1.98-2.4,3.03-2.93.87-.44.47-1.1-.2-1.43-1.16-.59-.93-1.31-1.09-2.47-.12-.83-.84-.89-.94-1.48-1.34-1.72.77-2.62,2.08-3.31,1.36-.71,1.35-2.75,2.62-2.71.93.03,2.41.28,3.28.06,0-1.08-2.3-3.36-2.08-4,1.72,0,4.58-.46,6.03-1.34.24-.24.46-.94.73-1.07.32-.15.96-.1,1.32-.09l2.21.06c0-.51-1.45-2.07-1.87-2.41-.91-.74-1.87-1.56-2.94-2.1-.53-.27-2.73-.19-2.74-.47,0-.26-.16-.87.05-.93.54-.15.75-.41,1.17-.71.27-.2,1.38-1.17.46-.99-.71.14-1.34.39-2.08.47-.81-.05-1.82-.06-2.57-.39-.48-.22-1.08-.5-1.58-.63-.48-.12-1.97,2.18-2.75,2.51-.8.34-1.55.13-2.39.26-1.4.22-1.3.88-1.78-.61-.22-.66-.39-.74.29-1.14.26-.16.12-.44.12-.72.17-.5.1-.91.37-1.42.05-.1.45-.71.21-.76-.03-.11-1.42-.71-1.66-1.01-.23-.28-1.45-1.25-1.4-1.4.13-.38.5-.63.59-1.02.11-.46-.14-1.37.08-1.55.28-.25.72-.39.8-.81.09-.42.07-.67.5-.91.45-.26,1.04-.42,1.42-.79.6-.71,2.23.07,2.23-1.14,0-.82-.67-1.74-.33-2.48.27-.61.69-.27.04-.91-.57-.57-1.1-.91-1.23-1.77-.2-1.35.67-1.96.63-3.18-.01-.42-.32-1.8-.12-2.06.11-.19,0-1.66,0-2.01h-.02s-2.34.05-2.34.05c-1.2.03-1.44.96-2.33-.35-1.13-1.68-.24-3.2-1.92-4.65-.65-.56-.83,1.36-2.19.58-.7-.4-1.51.44-2.33.2-1.62-.49-1.36-3.53-.12-4.28l.8-3.21c.45.46,1.84-.49,2.54-.02.78.52.35,1.8,1.98.64.46-.33,1.02-.52,1.56-.53l-.03-.94c.3-.79-.3-2.15-.3-2.98,0-1.8-.19-1.56-1.92-.86-1.06.44-1.35.42-1.93-.37-.23-.3-.91-.15-1.25-.18-.49-.04-.66-.62-.88-.97-.03-.04-.32-.36-.22-.4l1.16-.97c.33-.28.86-1.16,1.31-1.05.01.04.2.18.25.18.29,1.02,6.41,1.69,6.68.58.29-.07.35-.74.41-.98h.03c.04-.1.85-.15.99-.18.29-.08.65-.34.94-.34.2.83.57,1.13,1.14,1.75.59.64.97-.03,1.44-.58.12-1.51-.64-2.93.25-4.27.69-1.05-.14-2.32-.43-3.47-.11-.46.09-.93-.03-1.4-.04.18-1.26.17-1.49.17-.48,0-.93.1-1.32.38-.46.33-1.71,2.08-1.58,2.61-.24-.08-.51-.56-.93-.66-.42-.1-1.05-.09-1.42-.26-1.01-.46-.2-1.26.11-1.88l.26-1.66c-.08-.05-.16-.12-.26-.21-1.07-1.03-2.27-.08-3.35-.67-.79-.44-.89-2.33-2.08-1.54-1.27.84-2.08.71-2.87.28l.15-.71c.13-.5,1.14-1.36.58-1.84-.56-.46-1.72-.05-2.21.32l-.24,1.2-1.14-.45-.75-.1.02-.9c0-.39.07-.85-.01-1.24-.11-.52.14-1.06.14-1.58s-.14-.5-.49-.81c-.42-.42-1.85-.82-1.75-1.46.11-.64.27-1.85.55-2.41.24-.48.95-.44.98-1.08.02-.49-.73-1.59-1.01-2.01-.26-.41-.12-2.53-.67-2.67-.31.42-.2,1.2-.69,1.69-.58.58-.78.78-1.52,1.24-.63.39-.63-.22-1.11-.31-.64-.12-1.03.91-1.4,1.29-1.55,1.55-1.42.85-2.83-.11-1.14-.77-1.99-2.1-1.87-3.43.07-.8.31-2.11-.18-2.82-.67-.96-1.17-1.93-1.54-3.03h-.03c-.1.39-3.74,1.99-4.26,2.19-1.35.53-3.05.75-3.3-1.24l.49-1.74c-.49-.24-1.08-.7-1.18-1.11-.76-3.07-.93-5.82-4.41-5.53l-.24-.99c-.14-.45-.01-.9-.05-1.37-.03-.52-.69-.5-1-.79-.82-.77-2.17-.27-2.67-1.39-.29-.65-.06-1.14-.79-1.57-.75-.44-1.35-.88-1.35-1.8-1.05-.17-1.13-.01-2.03-.67-.72-.53-2.15-.15-2.98-.15h-.03c-.04-.19-.05-.28-.01-.49.54-1.36-1.39-1.78-1.05-2.1l1.58-1.51,1.13-.87c.38-.29.26-1.52.26-1.98,0-.4.29-.74.29-1.12,0-1.08,1.94.37,1.7-1.44-.12-1-.16-.72-1.08-.67-.51.03-.57-1.06-.46-1.45.08-.65-.14-2.22-.59-2.71-.56-.61-1.36-1.68-2.06-2.12-.57-.36-1.13-.59-1.52-1.14-.63-.9-.55-.74.05-1.71.23-.38,1.4-2.6,1.4-2.89-.8,0-1.58-.04-2.37-.14-1.32-.44-1.61-.29-2.25-1.52-.26-.5-1.72-.46-2.28-.46-.74,0-1.42.21-2.13.21-1.05,0-1.66-.27-2.62-.47-.98-.21-1.83-.82-2.88-.94l-2.06-1.42c-.82.68-.72,1.83-1.2,2.74-.53,1.01-2.17,1.26-1.51,2.71.41.9.94,1.4,1.55,2.15.19.23.33.45.48.66l-.51.04c-.36,0-.72-.2-1.08-.22-.39-.01-.69.11-1.05.25-1.06,0-1.59-.22-2.54-.5-.79-.23-1.13.18-1.86.08-.68-.1-3.3-1.48-3.59-.75-.54,1.36-.82.25-1.77.91-.95.68-1.57,2.8-1.57,3.9-2.25.38-2.63-2.74-2.86-4.19-.19-1.2-.63-.49-1.34-.33-.51.23-1.04.96-1.58,1.09-.04.18-.6-.21-.68-.27-.17-.12-.56-.52-.75-.47-.14.72-.5,2.13-.8,2.74-.35,0-1.06-.65-1.4-.85-.6-.35-1,.26-1.57.55-1.44.72-2.63-1.8-4.2-1.8h-.01c-.37,1.53-.37,2.34-1.98,1.72-1.33-.51-2.01,1.74-3.44,2l-2.36.2c-.27.02-.18-1.11-.21-1.34-.05-.33-1.73-2.34-1.86-2.33-1.02.06-1.7.75-2.8.09-1.37-.82-1.98-2.11-3.08-3.11-.44-.4-.81.27-1.29.6-.82.55-1.61.98-2.52,1.35-1.54.63.08.64-.15,1.57-.64,0-2.63-.4-3.04-.15.3.4.76.75,1.17,1.06.47.24,1.84.67,1.39,1.28-.54.74-1.43.85-2.12,1.4-2.03,1.64-4.15,2.03-6.73,2.03-.12-.6-.3-1.52-.2-2.13-.13-.63-.31-1.29-.94-1.54-.57-.23-.61-1.43-.82-1.31-.46.25-.31.95-.49,1.39-.68,1.71-3.35,3.08-5.07,2.08-.63-.36.35-2.26.35-2.82-.78-.13-2.28-1.76-2.8-2.4-.9-1.09-2.21-1.58-3.17-2.59-1.12-1.17-1.11-.28-2.33-.63-.69-.11-1.17-.22-1.66-.73-.33-.35-.26-.83-.5-1.13-.54,0-.7,1.59-1.72,1.72-.29.41-.3,1.16-.8,1.32-.36.12-1.7-.05-1.83.05,0,.03,0,.05-.03.06,0,1.13-1.67,3.73-2.94,3.55l.03.02c-.16,0-.36.12-.56.21-.42,1.26-1.6,3.46-2.47,4.48-.2.24-.67.39-.52.68.1.2.58,1.22.73,1.17.56-.19,1.11-.7,1.62-.87,0,.65.1,1.07.29,1.69.08.08.58.53.61.63.2.05-.35.32-.39.34l-.94.39c-.81.34-1.2.8-1.74,1.51-.95,1.26-.8,3.23-2.52,3.57-.89.18-1.29.94-2.33.91-.39,0-1.22-.31-1.51-.24-.19.76.51,1.87.73,2.54.46,0,1.03-.22,1.47-.35l.58,1.22.52.14c.48.24.97.26,1.46.38.42.1.73.35,1.08.61.8.35.55.81,1.08,1.31.66.62.19.83.46,1.49.15.36.4.92.41,1.29.02.72-.26,1.16-.5,1.81-.15.4.09.39.09.72-.67,0-2.59-.59-3.12-.18.07.29.59.73.76,1.05l.75,1.37c.46.84,1.31,1.51,1.81,2.32.49,1.4,1.76,1.5,2.18,3.05.42,1.54.38,2.25,1.74,3.28.34.25-.22,1.52-.37,1.95-.18.5-.4.42-.73.72-.45.4-.68.75-1.06,1.16-.27.54.15,1.29.03,1.88-.12.63-.72.53-.21,1.29.78,1.18-1.14.87-.64,1.95.13.27.9,1.31.64,1.54-.36.32-2.2.26-2.8.46-.47.15-1,.76-1.52.99-1.73.77.32,2.09,1.05,2.57.27.18-.23,1.21-.23,1.58l.65,2.01c.82-.13,1.88-.04,2.68-.2-.31.97-.55,2.48-1.42,3.13-.84.64.5,2.11.63,2.85.11.71.51,1.63.39,2.32,0,.43.12,1.46.39,1.78.1.11.75.42.91.5.07.53-.06,1.67.27,2.06.52.6.5,1.58-.22,2.04,0,.41.09.82.09,1.25,0,.37-.04.72-.03,1.1.03.87,1.47.99.91,2.06-.21.4-.67,1.3-1.14,1.34-.5.37-1.63,2.07-1.27,2.74.49.88,1.32.98,2.16.64,3.09-1.23,1.94.66,2.6,2.45.16.45.1.42-.43.47l-1.46.14c-.59.05-1.03-.1-.72.61.14.32.77,1.36.58,1.65-.23.35-1.27,1.12-1.64,1.25-.38.59-1.13,1.25-.26,1.81.55.35.98.57.84,1.29-.25,1.21-1.97,2.16-2.66,3.15-.5.72-.56,1.58-1.11,2.24-.2.25-.68.43-.79.7-.18.44.35,1.09.33,1.55.2.45.61.59,1.02.85.15.1.54.33.47.55-.23.7-1.25.75-1.49,1.45.82.05,1.78.39,1.78,1.32,0,.53.94,2.15.41,2.36-.54.22-1.29,0-1.72.47-.52.59.07,2.54-.8,2.57-1.24.05-1.16-2.18-2.07-2.22-.68-.04-.74,1.12-1.08,1.49-.31.34-.47-.73-1.2.29-.25.38-.35.84-.63,1.21-.32.42-.79.54-1.02,1.06-.51,1.14,1.65,1.88,2.34,2.06,0,.74-1.06,1.3-1.23,1.98-.21.81.25,1.85-.05,2.57-.14.35-3.86.8-4.44.83.2.58,1.19,1.24,1.58,1.73.67.84.23,1.54.23,2.4.69.23,1.58.44,2.36.47.69.03.69,1.76.74,2.29.11,1.13-1.44,3.96-2.8,3.69-.33.45-.99.75-1.51.94-.53.2.04.48.2.93.4,1.17.23,1.77.11,2.96-.26,2.47-2.12,4.66-3.84,6.37-1,1,1.98-.28,1.98,1.04,0,1.23-1.7,1.96-1.75,3.26-.04.93-.51,2.25.42,2.7,2.55,1.23,1.65,3.7,1.65,5.96,0,1.15-1,1.56-1.42,2.44-.45.95.08,1.17.32,1.98.11.37-.09,1.05-.15,1.43-.15.87-.95.63-.29,1.58.6.87.25,1.64-.79,1.84.05.2.6.6.75.84.18.29.29.72.29,1.06-.03.58-.57,1.79-.41,2.26.14.43.63.62.9.97.63.85-.59,1.74.53,2.01.67.17,1.21.24,1.64.84.74,1.02.96,1.97,1.99,2.83.43.35,2.38,2.44,2.38,2.93-.55,0-1.1-.34-1.65-.4-1.42-.11-2.06.18-3.2,1.05-.36.27-2.24,1.7-2.57,1.4-1.89-1.74-3.24.61-4.78,1.11,0,.03,0,.04.02.05,0,.22,1.43,1.6,1.66,1.66,0,.21-1.5,1.2-1.75,1.42-.54.46-1.66.39-2.34.44-.81,0-2.82.5-2.21,1.66.7,1.33-.76.08-1.14.08-.44,0-.79.85-1.13,1.13l-.68.57c-.55.45,1.53.8,1.48,1.06-.08.4.11,1.31-.03,1.55-.14.25-.95-.47-1.23-.23-3.85,3.31,3.19,4.11-2.18,4.11-1.24,0-1.78.77-2.81,1.05l-2.34.38c.06.97.99,1.58,1.64,2.19.24.23.46.65.58.94Z"/>
      </g>
      <path class="cls-4" d="m154.93,77.31c2.76,0,4.99-2.23,4.99-4.99s-2.23-4.99-4.99-4.99-4.99,2.23-4.99,4.99,2.23,4.99,4.99,4.99"/>
      <path class="cls-6" d="m183.83,116.19c2.76,0,4.99-2.23,4.99-4.99s-2.23-4.99-4.99-4.99-4.99,2.23-4.99,4.99,2.23,4.99,4.99,4.99"/>
      <path class="cls-6" d="m72.48,125.64c5.2,0,9.42-4.22,9.42-9.42s-4.22-9.42-9.42-9.42-9.42,4.22-9.42,9.42,4.22,9.42,9.42,9.42"/>
      <path class="cls-5" d="m178.83,65.34c5.2,0,9.42-4.22,9.42-9.42s-4.22-9.42-9.42-9.42-9.42,4.21-9.42,9.42,4.22,9.42,9.42,9.42"/>
      <path class="cls-6" d="m171.62,62.03c5.2,0,9.42-4.22,9.42-9.42s-4.22-9.42-9.42-9.42-9.42,4.21-9.42,9.42,4.22,9.42,9.42,9.42"/>
      <path class="cls-6" d="m182.3,90.97c2.76,0,4.99-2.23,4.99-4.99s-2.23-4.99-4.99-4.99-4.99,2.23-4.99,4.99,2.23,4.99,4.99,4.99"/>
      <path class="cls-6" d="m184.26,173.94c5.2,0,9.42-4.22,9.42-9.42s-4.22-9.42-9.42-9.42-9.42,4.22-9.42,9.42,4.22,9.42,9.42,9.42"/>
      <path class="cls-6" d="m121.08,43.02c5.2,0,9.42-4.22,9.42-9.42s-4.22-9.42-9.42-9.42-9.42,4.22-9.42,9.42,4.22,9.42,9.42,9.42"/>
      <path class="cls-6" d="m191.45,78.29c2.76,0,4.99-2.23,4.99-4.99s-2.23-4.99-4.99-4.99-4.99,2.23-4.99,4.99,2.23,4.99,4.99,4.99"/>
      <path class="cls-6" d="m169.25,86.76c2.76,0,4.99-2.23,4.99-4.99s-2.23-4.99-4.99-4.99-4.99,2.23-4.99,4.99,2.23,4.99,4.99,4.99"/>
      <path class="cls-6" d="m150.84,101.34c2.76,0,4.99-2.23,4.99-4.99s-2.23-4.99-4.99-4.99-4.99,2.23-4.99,4.99,2.23,4.99,4.99,4.99"/>
      <path class="cls-6" d="m130.63,101.34c2.76,0,4.99-2.23,4.99-4.99s-2.23-4.99-4.99-4.99-4.99,2.23-4.99,4.99,2.23,4.99,4.99,4.99"/>
      <path class="cls-6" d="m140.52,183.36c5.2,0,9.42-4.22,9.42-9.42s-4.22-9.42-9.42-9.42-9.42,4.22-9.42,9.42,4.22,9.42,9.42,9.42"/>
      <path class="cls-5" d="m160.83,95.96c2.76,0,4.99-2.23,4.99-4.99s-2.23-4.99-4.99-4.99-4.99,2.23-4.99,4.99,2.23,4.99,4.99,4.99"/>
    </g>
  </g>
</svg>