<?xml version="1.0" encoding="UTF-8"?><svg id="Calque_2" xmlns="http://www.w3.org/2000/svg" viewBox="0 0 209.84 83.59"><defs><style>.cls-1,.cls-2,.cls-3{fill:#fff;}.cls-4{letter-spacing:-.13em;}.cls-4,.cls-5,.cls-6,.cls-7,.cls-8,.cls-9,.cls-10{isolation:isolate;}.cls-4,.cls-6,.cls-7,.cls-8,.cls-9,.cls-10{fill:#1d1d1b;font-family:Philharmonique-SemiBold, Philharmonique;font-size:10.28px;font-weight:600;}.cls-2,.cls-3,.cls-11{stroke:#1d1d1b;stroke-width:.65px;}.cls-6{letter-spacing:-.03em;}.cls-12{fill:#036595;}.cls-7{letter-spacing:-.03em;}.cls-8{letter-spacing:-.05em;}.cls-9{letter-spacing:-.04em;}.cls-13{fill:#f39a89;}.cls-14{fill:#a82b39;}.cls-3,.cls-11{stroke-linecap:round;stroke-linejoin:round;}.cls-15{fill:#f39a88;}.cls-11{fill:none;}</style></defs><g id="Calque_2-2"><g id="Calque_1-2"><polygon class="cls-1" points="151.7 45.27 149.46 40.83 146.64 40.83 142.67 33.58 138.69 29.62 139.94 24.02 135.96 20.71 131.99 20.71 129.75 18.98 124.2 19.56 119.65 16.27 115.26 17.34 110.13 17.84 106.24 21.87 100.6 22.94 101.18 30.2 95.63 30.77 96.22 38.02 99.53 40.24 101.85 46.34 99.53 49.15 105.65 55.33 111.95 55.83 115.76 61.43 133.15 65.95 147.8 62.58 147.8 58.63 149.46 50.88 151.7 45.27"/><polygon class="cls-11" points="151.7 45.27 149.46 40.83 146.64 40.83 142.67 33.58 138.69 29.62 139.94 24.02 135.96 20.71 131.99 20.71 129.75 18.98 124.2 19.56 119.65 16.27 115.26 17.34 110.13 17.84 106.24 21.87 100.6 22.94 101.18 30.2 95.63 30.77 96.22 38.02 99.53 40.24 101.85 46.34 99.53 49.15 105.65 55.33 111.95 55.83 115.76 61.43 133.15 65.95 147.8 62.58 147.8 58.63 149.46 50.88 151.7 45.27"/><polygon class="cls-1" points="200.55 18.09 191.65 12.38 187.54 11.73 185.14 14.22 179.24 11.73 178.04 6.67 173.84 .97 171.54 .32 168.04 6.67 165.04 9.26 163.84 11.09 163.24 16.9 162.74 18.09 166.24 19.28 169.74 21.2 173.84 21.2 175.04 28.2 175.04 37.15 178.04 42.74 181.74 47.15 182.84 54.15 179.24 56.09 173.84 51.68 173.84 47.91 165.64 46.52 168.04 49.09 170.34 54.15 173.84 54.15 173.34 57.29 169.74 60.52 175.04 60.52 175.04 64.93 178.04 64.93 179.24 67.62 183.94 68.16 184.54 64.29 188.74 64.29 191.65 67.62 191.65 64.93 189.84 61.81 187.54 58.68 189.34 54.81 192.24 51.68 192.24 47.91 195.25 46.52 196.95 43.4 192.24 37.15 191.04 33.27 194.65 28.86 200.55 23.26 200.55 18.09"/><polygon class="cls-11" points="200.55 18.09 191.65 12.38 187.54 11.73 185.14 14.22 179.24 11.73 178.04 6.67 173.84 .97 171.54 .32 168.04 6.67 165.04 9.26 163.84 11.09 163.24 16.9 162.74 18.09 166.24 19.28 169.74 21.2 173.84 21.2 175.04 28.2 175.04 37.15 178.04 42.74 181.74 47.15 182.84 54.15 179.24 56.09 173.84 51.68 173.84 47.91 165.64 46.52 168.04 49.09 170.34 54.15 173.84 54.15 173.34 57.29 169.74 60.52 175.04 60.52 175.04 64.93 178.04 64.93 179.24 67.62 183.94 68.16 184.54 64.29 188.74 64.29 191.65 67.62 191.65 64.93 189.84 61.81 187.54 58.68 189.34 54.81 192.24 51.68 192.24 47.91 195.25 46.52 196.95 43.4 192.24 37.15 191.04 33.27 194.65 28.86 200.55 23.26 200.55 18.09"/><g class="cls-5"><text class="cls-10" transform="translate(94.93 81.48)"><tspan x="0" y="0">LA RÉUNION</tspan></text></g><g class="cls-5"><text class="cls-10" transform="translate(164.66 81.48)"><tspan x="0" y="0">M</tspan></text><text class="cls-4" transform="translate(173.18 81.48)"><tspan x="0" y="0">A</tspan></text><text class="cls-8" transform="translate(178.44 81.48)"><tspan x="0" y="0">Y</tspan></text><text class="cls-7" transform="translate(184.33 81.48)"><tspan x="0" y="0">O</tspan></text><text class="cls-10" transform="translate(191.6 81.48)"><tspan x="0" y="0">TTE</tspan></text></g><path class="cls-12" d="m207.57,17.32s-2.19,2.42-2.19,2.9,1.04,3.14,1.04,3.14l3.09-3.09-1.94-2.96h0Z"/><path class="cls-3" d="m207.57,17.32s-2.19,2.42-2.19,2.9,1.04,3.14,1.04,3.14l3.09-3.09-1.94-2.96h0Z"/><path class="cls-15" d="m111.5,40.09c3.57,0,6.46-2.89,6.46-6.46s-2.89-6.46-6.46-6.46-6.46,2.89-6.46,6.46,2.89,6.46,6.46,6.46"/><path class="cls-13" d="m196.04,25.06c3.56,0,6.45-2.89,6.45-6.45s-2.89-6.45-6.45-6.45-6.45,2.89-6.45,6.45,2.89,6.45,6.45,6.45"/><path class="cls-1" d="m70.8,24.05l2.98.66,5.55-1.73,2.48-1.32-3.14-1.81s-7.87,4.2-7.87,4.2Zm-32.63-4.78l-2.98,2.39-3.81,1.32-.66,4.12-4.22.82-2.48-4.94-6.71-3.71-6.21-.74-2.4,5.52v5.6l2.98,7.34v9.07l3.23,5.03,2.98,6.68,2.49-.58,10.35-6.76v-10.96l-2.32-1.98v-6.67c1-.58,1.99-1.15,2.98-1.81l3.23,4.29,4.8,1.16,12.92-4.2,6.21.58,4.89-1.15-4.31-3.71-6.13-3.71-6.79-1.15-1.9-3.21v-5.44l-2.4-4.2-3.73-4.37-4.97,6.76.75,3.71,3.06,1.81,1.16,3.13v-.04Zm25.75,39.73l-3.64-4.29-4.22-2.47-6.21,6.76,1.91,5.44,2.98.58,3.06,1.24,4.97-4.12,1.16-3.13h-.01Z"/><path class="cls-3" d="m70.8,24.05l2.98.66,5.55-1.73,2.48-1.32-3.14-1.81s-7.87,4.2-7.87,4.2Zm-32.63-4.78l-2.98,2.39-3.81,1.32-.66,4.12-4.22.82-2.48-4.94-6.71-3.71-6.21-.74-2.4,5.52v5.6l2.98,7.34v9.07l3.23,5.03,2.98,6.68,2.49-.58,10.35-6.76v-10.96l-2.32-1.98v-6.67c1-.58,1.99-1.15,2.98-1.81l3.23,4.29,4.8,1.16,12.92-4.2,6.21.58,4.89-1.15-4.31-3.71-6.13-3.71-6.79-1.15-1.9-3.21v-5.44l-2.4-4.2-3.73-4.37-4.97,6.76.75,3.71,3.06,1.81,1.16,3.13v-.04Zm25.75,39.73l-3.64-4.29-4.22-2.47-6.21,6.76,1.91,5.44,2.98.58,3.06,1.24,4.97-4.12,1.16-3.13h-.01Z"/><polygon class="cls-2" points="24.88 65.41 25.86 66.37 28.42 66.05 29.98 64.73 24.88 65.41"/><path class="cls-15" d="m41.12,33.33c3.57,0,6.46-2.89,6.46-6.46s-2.89-6.46-6.46-6.46-6.46,2.89-6.46,6.46,2.89,6.46,6.46,6.46"/><path class="cls-14" d="m45.75,31.09c3.56,0,6.45-2.89,6.45-6.45s-2.89-6.45-6.45-6.45-6.45,2.89-6.45,6.45,2.89,6.45,6.45,6.45"/><g class="cls-5"><text class="cls-10" transform="translate(0 81.48)"><tspan x="0" y="0">G</tspan></text><text class="cls-6" transform="translate(7.38 81.48)"><tspan x="0" y="0">U</tspan></text><text class="cls-10" transform="translate(13.91 81.48)"><tspan x="0" y="0">ADE</tspan></text><text class="cls-9" transform="translate(33.22 81.48)"><tspan x="0" y="0">L</tspan></text><text class="cls-10" transform="translate(38.23 81.48)"><tspan x="0" y="0">OUPE</tspan></text></g></g></g></svg>