<?xml version="1.0" encoding="UTF-8"?>
<svg id="Calque_2" data-name="Calque 2" xmlns="http://www.w3.org/2000/svg" viewBox="0 0 214.71 84.55">
  <defs>
    <style>
      .cls-1 {
        fill: #fff;
      }

      .cls-2 {
        stroke-linecap: round;
        stroke-linejoin: round;
      }

      .cls-2, .cls-3 {
        fill: none;
        stroke: #1d1d1b;
        stroke-width: .65px;
      }

      .cls-4 {
        letter-spacing: 0em;
      }

      .cls-5 {
        letter-spacing: -.05em;
      }

      .cls-6 {
        fill: #1d1d1b;
        font-family: Philharmonique-SemiBold, Philharmonique;
        font-size: 10.28px;
        font-weight: 600;
      }

      .cls-7 {
        letter-spacing: -.04em;
      }

      .cls-8 {
        letter-spacing: 0em;
      }

      .cls-9 {
        letter-spacing: -.03em;
      }

      .cls-10 {
        letter-spacing: -.03em;
      }

      .cls-11 {
        fill: #f39a89;
      }

      .cls-12 {
        fill: #a82b39;
      }

      .cls-13 {
        letter-spacing: -.13em;
      }

      .cls-14 {
        fill: #f39a88;
      }
    </style>
  </defs>
  <g id="Calque_1-2" data-name="Calque 1">
    <g>
      <path class="cls-1" d="m165.51,2.29c.77,0,1.39-.44,1.39-.98s-.62-.98-1.39-.98-1.39.44-1.39.98.62.98,1.39.98"/>
      <path class="cls-2" d="m165.51,2.29c.77,0,1.39-.44,1.39-.98s-.62-.98-1.39-.98-1.39.44-1.39.98.62.98,1.39.98Z"/>
    </g>
    <polygon class="cls-1" points="156.57 46.23 154.33 41.78 151.52 41.78 147.54 34.53 143.57 30.57 144.81 24.97 140.84 21.67 136.86 21.67 134.63 19.94 129.08 20.52 124.52 17.22 120.14 18.29 115 18.79 111.11 22.83 105.48 23.9 106.06 31.15 100.51 31.73 101.09 38.98 104.4 41.2 106.72 47.3 104.4 50.1 110.53 56.28 116.82 56.78 120.63 62.38 138.02 66.91 152.68 63.54 152.68 59.58 154.33 51.84 156.57 46.23"/>
    <polygon class="cls-2" points="156.57 46.23 154.33 41.78 151.52 41.78 147.54 34.53 143.57 30.57 144.81 24.97 140.84 21.67 136.86 21.67 134.63 19.94 129.08 20.52 124.52 17.22 120.14 18.29 115 18.79 111.11 22.83 105.48 23.9 106.06 31.15 100.51 31.73 101.09 38.98 104.4 41.2 106.72 47.3 104.4 50.1 110.53 56.28 116.82 56.78 120.63 62.38 138.02 66.91 152.68 63.54 152.68 59.58 154.33 51.84 156.57 46.23"/>
    <polygon class="cls-1" points="205.42 19.04 196.52 13.34 192.42 12.69 190.02 15.17 184.12 12.69 182.92 7.63 178.72 1.92 176.42 1.28 172.92 7.63 169.92 10.22 168.71 12.05 168.11 17.86 167.61 19.04 171.11 20.23 174.62 22.17 178.72 22.17 179.92 29.17 179.92 38.1 182.92 43.7 186.62 48.12 187.72 55.12 184.12 57.05 178.72 52.64 178.72 48.87 170.51 47.47 172.92 50.06 175.22 55.12 178.72 55.12 178.22 58.24 174.62 61.47 179.92 61.47 179.92 65.88 182.92 65.88 184.12 68.58 188.82 69.11 189.42 65.24 193.62 65.24 196.52 68.58 196.52 65.88 194.72 62.76 192.42 59.64 194.22 55.76 197.12 52.64 197.12 48.87 200.12 47.47 201.82 44.35 197.12 38.1 195.92 34.23 199.52 29.81 205.42 24.21 205.42 19.04"/>
    <polygon class="cls-2" points="205.42 19.04 196.52 13.34 192.42 12.69 190.02 15.17 184.12 12.69 182.92 7.63 178.72 1.92 176.42 1.28 172.92 7.63 169.92 10.22 168.71 12.05 168.11 17.86 167.61 19.04 171.11 20.23 174.62 22.17 178.72 22.17 179.92 29.17 179.92 38.1 182.92 43.7 186.62 48.12 187.72 55.12 184.12 57.05 178.72 52.64 178.72 48.87 170.51 47.47 172.92 50.06 175.22 55.12 178.72 55.12 178.22 58.24 174.62 61.47 179.92 61.47 179.92 65.88 182.92 65.88 184.12 68.58 188.82 69.11 189.42 65.24 193.62 65.24 196.52 68.58 196.52 65.88 194.72 62.76 192.42 59.64 194.22 55.76 197.12 52.64 197.12 48.87 200.12 47.47 201.82 44.35 197.12 38.1 195.92 34.23 199.52 29.81 205.42 24.21 205.42 19.04"/>
    <text class="cls-6" transform="translate(99.8 82.44)"><tspan x="0" y="0">LA RÉUNION</tspan></text>
    <text class="cls-6" transform="translate(169.54 82.44)"><tspan x="0" y="0">M</tspan><tspan class="cls-13" x="8.52" y="0">A</tspan><tspan class="cls-5" x="13.78" y="0">Y</tspan><tspan class="cls-10" x="19.67" y="0">O</tspan><tspan class="cls-4" x="26.94" y="0">TTE</tspan></text>
    <g>
      <path class="cls-1" d="m212.44,18.29s-2.19,2.42-2.19,2.9,1.04,3.14,1.04,3.14l3.09-3.09-1.94-2.96Z"/>
      <path class="cls-2" d="m212.44,18.29s-2.19,2.42-2.19,2.9,1.04,3.14,1.04,3.14l3.09-3.09-1.94-2.96Z"/>
      <path class="cls-14" d="m116.38,41.05c3.57,0,6.46-2.89,6.46-6.46s-2.89-6.46-6.46-6.46-6.46,2.89-6.46,6.46,2.89,6.46,6.46,6.46"/>
      <path class="cls-11" d="m200.92,26.02c3.56,0,6.45-2.89,6.45-6.45s-2.89-6.45-6.45-6.45-6.45,2.89-6.45,6.45,2.89,6.45,6.45,6.45"/>
    </g>
    <polygon class="cls-3" points=".72 14.41 3.39 16.27 8.49 14.06 8.66 11.19 6.06 9.74 4.79 13.06 .72 14.41"/>
    <g>
      <path class="cls-1" d="m75.67,25.02l2.98.66,5.55-1.73,2.48-1.32-3.14-1.81-7.87,4.2Zm-32.63-4.78l-2.98,2.39-3.81,1.32-.66,4.12-4.22.82-2.48-4.94-6.71-3.71-6.21-.74-2.4,5.52v5.6l2.98,7.34v9.07l3.23,5.03,2.98,6.68,2.49-.58,10.35-6.76v-10.96l-2.32-1.98v-6.67c1-.58,1.99-1.15,2.98-1.81l3.23,4.29,4.8,1.16,12.92-4.2,6.21.58,4.89-1.15-4.31-3.71-6.13-3.71-6.79-1.15-1.9-3.21v-5.44l-2.4-4.2-3.73-4.37-4.97,6.76.75,3.71,3.06,1.81,1.16,3.13Zm25.75,39.73l-3.64-4.29-4.22-2.47-6.21,6.76,1.91,5.44,2.98.58,3.06,1.24,4.97-4.12,1.16-3.13Z"/>
      <path class="cls-2" d="m75.67,25.02l2.98.66,5.55-1.73,2.48-1.32-3.14-1.81-7.87,4.2Zm-32.63-4.78l-2.98,2.39-3.81,1.32-.66,4.12-4.22.82-2.48-4.94-6.71-3.71-6.21-.74-2.4,5.52v5.6l2.98,7.34v9.07l3.23,5.03,2.98,6.68,2.49-.58,10.35-6.76v-10.96l-2.32-1.98v-6.67c1-.58,1.99-1.15,2.98-1.81l3.23,4.29,4.8,1.16,12.92-4.2,6.21.58,4.89-1.15-4.31-3.71-6.13-3.71-6.79-1.15-1.9-3.21v-5.44l-2.4-4.2-3.73-4.37-4.97,6.76.75,3.71,3.06,1.81,1.16,3.13Zm25.75,39.73l-3.64-4.29-4.22-2.47-6.21,6.76,1.91,5.44,2.98.58,3.06,1.24,4.97-4.12,1.16-3.13Z"/>
    </g>
    <polygon class="cls-3" points="29.76 66.36 30.73 67.33 33.29 67.01 34.86 65.69 29.76 66.36"/>
    <polygon class="cls-3" points="23.58 8.59 26.5 8.59 29.17 6.9 28.44 5.21 23.58 7.03 23.58 8.59"/>
    <g>
      <path class="cls-14" d="m46,34.28c3.57,0,6.46-2.89,6.46-6.46s-2.89-6.46-6.46-6.46-6.46,2.89-6.46,6.46,2.89,6.46,6.46,6.46"/>
      <path class="cls-12" d="m50.63,32.04c3.56,0,6.45-2.89,6.45-6.45s-2.89-6.45-6.45-6.45-6.45,2.89-6.45,6.45,2.89,6.45,6.45,6.45"/>
    </g>
    <text class="cls-6" transform="translate(4.88 82.44)"><tspan x="0" y="0">G</tspan><tspan class="cls-9" x="7.38" y="0">U</tspan><tspan class="cls-8" x="13.91" y="0">ADE</tspan><tspan class="cls-7" x="33.22" y="0">L</tspan><tspan x="38.23" y="0">OUPE</tspan></text>
  </g>
</svg>